<svg xmlns="http://www.w3.org/2000/svg" viewBox="0 0 930 30" width="930" height="30"><g stroke="#000000" stroke-linecap="round" stroke-miterlimit="10"><path d="M17 8.53L9.25 13 17 17.47M21 12.5h-5.5" fill="none"/><path d="M21 12.5c3.04 0 5.5 2.46 5.5 5.5s-2.46 5.5-5.5 5.5" fill="#ffffff"/></g><g stroke="#000000" stroke-linecap="round" stroke-miterlimit="10"><path d="M46.985 8.53L39.235 13l7.75 4.47M51 12.5h-5.517" fill="none"/><path d="M51 12.5c3.04 0 5.5 2.46 5.5 5.5s-2.46 5.5-5.5 5.5" fill="#ffffff"/></g><g stroke="#000000" stroke-linecap="round" stroke-miterlimit="10"><path d="M76.936 8.53L69.186 13l7.75 4.47M81 12.5h-5.574" fill="none"/><path d="M81 12.5c3.04 0 5.5 2.46 5.5 5.5s-2.46 5.5-5.5 5.5" fill="#ffffff"/></g><g stroke="#000000" stroke-linecap="round" stroke-miterlimit="10"><path d="M106.845 8.53L99.095 13l7.75 4.47M111 12.5h-5.681" fill="none"/><path d="M111 12.5c3.04 0 5.5 2.46 5.5 5.5s-2.46 5.5-5.5 5.5" fill="#ffffff"/></g><g stroke="#000000" stroke-linecap="round" stroke-miterlimit="10"><path d="M136.7 8.53L128.95 13l7.75 4.47M141 12.5h-5.85" fill="none"/><path d="M141 12.5c3.04 0 5.5 2.46 5.5 5.5s-2.46 5.5-5.5 5.5" fill="#ffffff"/></g><g stroke="#000000" stroke-linecap="round" stroke-miterlimit="10"><path d="M166.489 8.53l-7.75 4.47 7.75 4.47M171 12.5h-6.096" fill="none"/><path d="M171 12.5c3.04 0 5.5 2.46 5.5 5.5s-2.46 5.5-5.5 5.5" fill="#ffffff"/></g><g stroke="#000000" stroke-linecap="round" stroke-miterlimit="10"><path d="M196.196 8.53l-7.75 4.47 7.75 4.47M201 12.5h-6.438" fill="none"/><path d="M201 12.5c3.04 0 5.5 2.46 5.5 5.5s-2.46 5.5-5.5 5.5" fill="#ffffff"/></g><g stroke="#000000" stroke-linecap="round" stroke-miterlimit="10"><path d="M225.809 8.53l-7.75 4.47 7.75 4.47M231 12.5h-6.889" fill="none"/><path d="M231 12.5c3.04 0 5.5 2.46 5.5 5.5s-2.46 5.5-5.5 5.5" fill="#ffffff"/></g><g stroke="#000000" stroke-linecap="round" stroke-miterlimit="10"><path d="M255.332 8.53l-7.75 4.47 7.75 4.47M261 12.5h-7.446" fill="none"/><path d="M261 12.5c3.04 0 5.5 2.46 5.5 5.5s-2.46 5.5-5.5 5.5" fill="#ffffff"/></g><g stroke="#000000" stroke-linecap="round" stroke-miterlimit="10"><path d="M284.796 8.53l-7.75 4.47 7.75 4.47M291 12.5h-8.071" fill="none"/><path d="M291 12.5c3.04 0 5.5 2.46 5.5 5.5s-2.46 5.5-5.5 5.5" fill="#ffffff"/></g><g stroke="#000000" stroke-linecap="round" stroke-miterlimit="10"><path d="M314.256 8.53l-7.75 4.47 7.75 4.47M321 12.5h-8.701" fill="none"/><path d="M321 12.5c3.04 0 5.5 2.46 5.5 5.5s-2.46 5.5-5.5 5.5" fill="#ffffff"/></g><g stroke="#000000" stroke-linecap="round" stroke-miterlimit="10"><path d="M343.757 8.53l-7.75 4.47 7.75 4.47M351 12.5h-9.283" fill="none"/><path d="M351 12.5c3.04 0 5.5 2.46 5.5 5.5s-2.46 5.5-5.5 5.5" fill="#ffffff"/></g><g stroke="#000000" stroke-linecap="round" stroke-miterlimit="10"><path d="M373.318 8.53l-7.75 4.47 7.75 4.47M381 12.5h-9.795" fill="none"/><path d="M381 12.5c3.04 0 5.5 2.46 5.5 5.5s-2.46 5.5-5.5 5.5" fill="#ffffff"/></g><g stroke="#000000" stroke-linecap="round" stroke-miterlimit="10"><path d="M402.941 8.53l-7.75 4.47 7.75 4.47M411 12.5h-10.235" fill="none"/><path d="M411 12.5c3.04 0 5.5 2.46 5.5 5.5s-2.46 5.5-5.5 5.5" fill="#ffffff"/></g><g stroke="#000000" stroke-linecap="round" stroke-miterlimit="10"><path d="M432.62 8.53L424.87 13l7.75 4.47M441 12.5h-10.61" fill="none"/><path d="M441 12.5c3.04 0 5.5 2.46 5.5 5.5s-2.46 5.5-5.5 5.5" fill="#ffffff"/></g><g stroke="#000000" stroke-linecap="round" stroke-miterlimit="10"><path d="M462.347 8.53l-7.75 4.47 7.75 4.47M471 12.5h-10.929" fill="none"/><path d="M471 12.5c3.04 0 5.5 2.46 5.5 5.5s-2.46 5.5-5.5 5.5" fill="#ffffff"/></g><g stroke="#000000" stroke-linecap="round" stroke-miterlimit="10"><path d="M492.113 8.53l-7.75 4.47 7.75 4.47M501 12.5h-11.201" fill="none"/><path d="M501 12.5c3.04 0 5.5 2.46 5.5 5.5s-2.46 5.5-5.5 5.5" fill="#ffffff"/></g><g stroke="#000000" stroke-linecap="round" stroke-miterlimit="10"><path d="M521.914 8.53l-7.75 4.47 7.75 4.47M531 12.5h-11.433" fill="none"/><path d="M531 12.5c3.04 0 5.5 2.46 5.5 5.5s-2.46 5.5-5.5 5.5" fill="#ffffff"/></g><g stroke="#000000" stroke-linecap="round" stroke-miterlimit="10"><path d="M551.744 8.53l-7.75 4.47 7.75 4.47M561 12.5h-11.632" fill="none"/><path d="M561 12.5c3.04 0 5.5 2.46 5.5 5.5s-2.46 5.5-5.5 5.5" fill="#ffffff"/></g><g stroke="#000000" stroke-linecap="round" stroke-miterlimit="10"><path d="M581.599 8.53l-7.75 4.47 7.75 4.47M591 12.5h-11.801" fill="none"/><path d="M591 12.5c3.04 0 5.5 2.46 5.5 5.5s-2.46 5.5-5.5 5.5" fill="#ffffff"/></g><g stroke="#000000" stroke-linecap="round" stroke-miterlimit="10"><path d="M611.475 8.53l-7.75 4.47 7.75 4.47M621 12.5h-11.945" fill="none"/><path d="M621 12.5c3.04 0 5.5 2.46 5.5 5.5s-2.46 5.5-5.5 5.5" fill="#ffffff"/></g><g stroke="#000000" stroke-linecap="round" stroke-miterlimit="10"><path d="M641.371 8.53l-7.75 4.47 7.75 4.47M651 12.5h-12.068" fill="none"/><path d="M651 12.5c3.04 0 5.5 2.46 5.5 5.5s-2.46 5.5-5.5 5.5" fill="#ffffff"/></g><g stroke="#000000" stroke-linecap="round" stroke-miterlimit="10"><path d="M671.282 8.53l-7.75 4.47 7.75 4.47M681 12.5h-12.171" fill="none"/><path d="M681 12.5c3.04 0 5.5 2.46 5.5 5.5s-2.46 5.5-5.5 5.5" fill="#ffffff"/></g><g stroke="#000000" stroke-linecap="round" stroke-miterlimit="10"><path d="M701.209 8.53l-7.75 4.47 7.75 4.47M711 12.5h-12.256" fill="none"/><path d="M711 12.5c3.04 0 5.5 2.46 5.5 5.5s-2.46 5.5-5.5 5.5" fill="#ffffff"/></g><g stroke="#000000" stroke-linecap="round" stroke-miterlimit="10"><path d="M731.148 8.53l-7.75 4.47 7.75 4.47M741 12.5h-12.327" fill="none"/><path d="M741 12.5c3.04 0 5.5 2.46 5.5 5.5s-2.46 5.5-5.5 5.5" fill="#ffffff"/></g><g stroke="#000000" stroke-linecap="round" stroke-miterlimit="10"><path d="M761.1 8.53L753.35 13l7.75 4.47M771 12.5h-12.384" fill="none"/><path d="M771 12.5c3.04 0 5.5 2.46 5.5 5.5s-2.46 5.5-5.5 5.5" fill="#ffffff"/></g><g stroke="#000000" stroke-linecap="round" stroke-miterlimit="10"><path d="M791.062 8.53l-7.75 4.47 7.75 4.47M801 12.5h-12.428" fill="none"/><path d="M801 12.5c3.04 0 5.5 2.46 5.5 5.5s-2.46 5.5-5.5 5.5" fill="#ffffff"/></g><g stroke="#000000" stroke-linecap="round" stroke-miterlimit="10"><path d="M821.034 8.53l-7.75 4.47 7.75 4.47M831 12.5h-12.46" fill="none"/><path d="M831 12.5c3.04 0 5.5 2.46 5.5 5.5s-2.46 5.5-5.5 5.5" fill="#ffffff"/></g><g stroke="#000000" stroke-linecap="round" stroke-miterlimit="10"><path d="M851.015 8.53l-7.75 4.47 7.75 4.47M861 12.5h-12.483" fill="none"/><path d="M861 12.5c3.04 0 5.5 2.46 5.5 5.5s-2.46 5.5-5.5 5.5" fill="#ffffff"/></g><g stroke="#000000" stroke-linecap="round" stroke-miterlimit="10"><path d="M881.004 8.53l-7.75 4.47 7.75 4.47M891 12.5h-12.496" fill="none"/><path d="M891 12.5c3.04 0 5.5 2.46 5.5 5.5s-2.46 5.5-5.5 5.5" fill="#ffffff"/></g><g stroke="#000000" stroke-linecap="round" stroke-miterlimit="10"><path d="M911 8.53L903.25 13l7.75 4.47M921 12.5h-12.5" fill="none"/><path d="M921 12.5c3.04 0 5.5 2.46 5.5 5.5s-2.46 5.5-5.5 5.5" fill="#ffffff"/></g></svg>
