<svg xmlns="http://www.w3.org/2000/svg" viewBox="0 0 930 30" width="930" height="30"><g fill="none" stroke="#000000" stroke-miterlimit="10"><path d="M5 18.5h20M5 8.5h20M5 13.5h20" stroke-dasharray="0,20" stroke-dashoffset="20"/><path d="M24.27 3.5H5.73C3.4 3.5 1.5 5.4 1.5 7.73v11.54c0 2.33 1.9 4.23 4.23 4.23H17.3l7.2 4 .38-4.06c2.04-.3 3.62-2.05 3.62-4.17V7.73c0-2.33-1.9-4.23-4.23-4.23z"/></g><g fill="none" stroke="#000000" stroke-miterlimit="10"><path d="M35 18.5h20M35 8.5h20M35 13.5h20" stroke-dasharray="0.04950936748458159,19.950490632515418" stroke-dashoffset="20"/><path d="M54.27 3.5H35.73c-2.33 0-4.23 1.9-4.23 4.23v11.54c0 2.33 1.9 4.23 4.23 4.23H47.3l7.2 4 .38-4.06c2.04-.3 3.62-2.05 3.62-4.17V7.73c0-2.33-1.9-4.23-4.23-4.23z"/></g><g fill="none" stroke="#000000" stroke-miterlimit="10"><path d="M65 18.5h20M65 8.5h20M65 13.5h20" stroke-dasharray="0.21281509714196667,19.787184902858034" stroke-dashoffset="20"/><path d="M84.27 3.5H65.73c-2.33 0-4.23 1.9-4.23 4.23v11.54c0 2.33 1.9 4.23 4.23 4.23H77.3l7.2 4 .38-4.06c2.04-.3 3.62-2.05 3.62-4.17V7.73c0-2.33-1.9-4.23-4.23-4.23z"/></g><g fill="none" stroke="#000000" stroke-miterlimit="10"><path d="M95 18.5h20M95 8.5h20M95 13.5h20" stroke-dasharray="0.5172602978282599,19.48273970217174" stroke-dashoffset="20"/><path d="M114.27 3.5H95.73c-2.33 0-4.23 1.9-4.23 4.23v11.54c0 2.33 1.9 4.23 4.23 4.23h11.57l7.2 4 .38-4.06c2.04-.3 3.62-2.05 3.62-4.17V7.73c0-2.33-1.9-4.23-4.23-4.23z"/></g><g fill="none" stroke="#000000" stroke-miterlimit="10"><path d="M125 18.5h20M125 8.5h20M125 13.5h20" stroke-dasharray="0.9986161391467785,19.00138386085322" stroke-dashoffset="20"/><path d="M144.27 3.5h-18.54c-2.33 0-4.23 1.9-4.23 4.23v11.54c0 2.33 1.9 4.23 4.23 4.23h11.57l7.2 4 .38-4.06c2.04-.3 3.62-2.05 3.62-4.17V7.73c0-2.33-1.9-4.23-4.23-4.23z"/></g><g fill="none" stroke="#000000" stroke-miterlimit="10"><path d="M155 18.5h20M155 8.5h20M155 13.5h20" stroke-dasharray="1.7021096321110303,18.297890367888968" stroke-dashoffset="20"/><path d="M174.27 3.5h-18.54c-2.33 0-4.23 1.9-4.23 4.23v11.54c0 2.33 1.9 4.23 4.23 4.23h11.57l7.2 4 .38-4.06c2.04-.3 3.62-2.05 3.62-4.17V7.73c0-2.33-1.9-4.23-4.23-4.23z"/></g><g fill="none" stroke="#000000" stroke-miterlimit="10"><path d="M185 18.5h20M185 8.5h20M185 13.5h20" stroke-dasharray="2.6789355015221963,17.321064498477803" stroke-dashoffset="20"/><path d="M204.27 3.5h-18.54c-2.33 0-4.23 1.9-4.23 4.23v11.54c0 2.33 1.9 4.23 4.23 4.23h11.57l7.2 4 .38-4.06c2.04-.3 3.62-2.05 3.62-4.17V7.73c0-2.33-1.9-4.23-4.23-4.23z"/></g><g fill="none" stroke="#000000" stroke-miterlimit="10"><path d="M215 18.5h20M215 8.5h20M215 13.5h20" stroke-dasharray="3.9692411897711413,16.030758810228857" stroke-dashoffset="20"/><path d="M234.27 3.5h-18.54c-2.33 0-4.23 1.9-4.23 4.23v11.54c0 2.33 1.9 4.23 4.23 4.23h11.57l7.2 4 .38-4.06c2.04-.3 3.62-2.05 3.62-4.17V7.73c0-2.33-1.9-4.23-4.23-4.23z"/></g><g fill="none" stroke="#000000" stroke-miterlimit="10"><path d="M245 18.5h20M245 8.5h20M245 13.5h20" stroke-dasharray="5.561070744975521,14.43892925502448" stroke-dashoffset="20"/><path d="M264.27 3.5h-18.54c-2.33 0-4.23 1.9-4.23 4.23v11.54c0 2.33 1.9 4.23 4.23 4.23h11.57l7.2 4 .38-4.06c2.04-.3 3.62-2.05 3.62-4.17V7.73c0-2.33-1.9-4.23-4.23-4.23z"/></g><g fill="none" stroke="#000000" stroke-miterlimit="10"><path d="M275 18.5h20M275 8.5h20M275 13.5h20" stroke-dasharray="7.345914165719821,12.65408583428018" stroke-dashoffset="20"/><path d="M294.27 3.5h-18.54c-2.33 0-4.23 1.9-4.23 4.23v11.54c0 2.33 1.9 4.23 4.23 4.23h11.57l7.2 4 .38-4.06c2.04-.3 3.62-2.05 3.62-4.17V7.73c0-2.33-1.9-4.23-4.23-4.23z"/></g><g fill="none" stroke="#000000" stroke-miterlimit="10"><path d="M305 18.5h20M305 8.5h20M305 13.5h20" stroke-dasharray="9.14503479633743,10.85496520366257" stroke-dashoffset="20"/><path d="M324.27 3.5h-18.54c-2.33 0-4.23 1.9-4.23 4.23v11.54c0 2.33 1.9 4.23 4.23 4.23h11.57l7.2 4 .38-4.06c2.04-.3 3.62-2.05 3.62-4.17V7.73c0-2.33-1.9-4.23-4.23-4.23z"/></g><g fill="none" stroke="#000000" stroke-miterlimit="10"><path d="M335 18.5h20M335 8.5h20M335 13.5h20" stroke-dasharray="10.809107962852112,9.190892037147888" stroke-dashoffset="20"/><path d="M354.27 3.5h-18.54c-2.33 0-4.23 1.9-4.23 4.23v11.54c0 2.33 1.9 4.23 4.23 4.23h11.57l7.2 4 .38-4.06c2.04-.3 3.62-2.05 3.62-4.17V7.73c0-2.33-1.9-4.23-4.23-4.23z"/></g><g fill="none" stroke="#000000" stroke-miterlimit="10"><path d="M365 18.5h20M365 8.5h20M365 13.5h20" stroke-dasharray="12.271894930185605,7.728105069814395" stroke-dashoffset="20"/><path d="M384.27 3.5h-18.54c-2.33 0-4.23 1.9-4.23 4.23v11.54c0 2.33 1.9 4.23 4.23 4.23h11.57l7.2 4 .38-4.06c2.04-.3 3.62-2.05 3.62-4.17V7.73c0-2.33-1.9-4.23-4.23-4.23z"/></g><g fill="none" stroke="#000000" stroke-miterlimit="10"><path d="M395 18.5h20M395 8.5h20M395 13.5h20" stroke-dasharray="13.528394692879036,6.4716053071209645" stroke-dashoffset="20"/><path d="M414.27 3.5h-18.54c-2.33 0-4.23 1.9-4.23 4.23v11.54c0 2.33 1.9 4.23 4.23 4.23h11.57l7.2 4 .38-4.06c2.04-.3 3.62-2.05 3.62-4.17V7.73c0-2.33-1.9-4.23-4.23-4.23z"/></g><g fill="none" stroke="#000000" stroke-miterlimit="10"><path d="M425 18.5h20M425 8.5h20M425 13.5h20" stroke-dasharray="14.599347858548903,5.400652141451097" stroke-dashoffset="20"/><path d="M444.27 3.5h-18.54c-2.33 0-4.23 1.9-4.23 4.23v11.54c0 2.33 1.9 4.23 4.23 4.23h11.57l7.2 4 .38-4.06c2.04-.3 3.62-2.05 3.62-4.17V7.73c0-2.33-1.9-4.23-4.23-4.23z"/></g><g fill="none" stroke="#000000" stroke-miterlimit="10"><path d="M455 18.5h20M455 8.5h20M455 13.5h20" stroke-dasharray="15.511226222323955,4.488773777676045" stroke-dashoffset="20"/><path d="M474.27 3.5h-18.54c-2.33 0-4.23 1.9-4.23 4.23v11.54c0 2.33 1.9 4.23 4.23 4.23h11.57l7.2 4 .38-4.06c2.04-.3 3.62-2.05 3.62-4.17V7.73c0-2.33-1.9-4.23-4.23-4.23z"/></g><g fill="none" stroke="#000000" stroke-miterlimit="10"><path d="M485 18.5h20M485 8.5h20M485 13.5h20" stroke-dasharray="16.288639120243694,3.711360879756307" stroke-dashoffset="20"/><path d="M504.27 3.5h-18.54c-2.33 0-4.23 1.9-4.23 4.23v11.54c0 2.33 1.9 4.23 4.23 4.23h11.57l7.2 4 .38-4.06c2.04-.3 3.62-2.05 3.62-4.17V7.73c0-2.33-1.9-4.23-4.23-4.23z"/></g><g fill="none" stroke="#000000" stroke-miterlimit="10"><path d="M515 18.5h20M515 8.5h20M515 13.5h20" stroke-dasharray="16.952361451365366,3.0476385486346347" stroke-dashoffset="20"/><path d="M534.27 3.5h-18.54c-2.33 0-4.23 1.9-4.23 4.23v11.54c0 2.33 1.9 4.23 4.23 4.23h11.57l7.2 4 .38-4.06c2.04-.3 3.62-2.05 3.62-4.17V7.73c0-2.33-1.9-4.23-4.23-4.23z"/></g><g fill="none" stroke="#000000" stroke-miterlimit="10"><path d="M545 18.5h20M545 8.5h20M545 13.5h20" stroke-dasharray="17.519358189056206,2.4806418109437955" stroke-dashoffset="20"/><path d="M564.27 3.5h-18.54c-2.33 0-4.23 1.9-4.23 4.23v11.54c0 2.33 1.9 4.23 4.23 4.23h11.57l7.2 4 .38-4.06c2.04-.3 3.62-2.05 3.62-4.17V7.73c0-2.33-1.9-4.23-4.23-4.23z"/></g><g fill="none" stroke="#000000" stroke-miterlimit="10"><path d="M575 18.5h20M575 8.5h20M575 13.5h20" stroke-dasharray="18.003363199508474,1.9966368004915247" stroke-dashoffset="20"/><path d="M594.27 3.5h-18.54c-2.33 0-4.23 1.9-4.23 4.23v11.54c0 2.33 1.9 4.23 4.23 4.23h11.57l7.2 4 .38-4.06c2.04-.3 3.62-2.05 3.62-4.17V7.73c0-2.33-1.9-4.23-4.23-4.23z"/></g><g fill="none" stroke="#000000" stroke-miterlimit="10"><path d="M605 18.5h20M605 8.5h20M605 13.5h20" stroke-dasharray="18.41551566858703,1.5844843314129697" stroke-dashoffset="20"/><path d="M624.27 3.5h-18.54c-2.33 0-4.23 1.9-4.23 4.23v11.54c0 2.33 1.9 4.23 4.23 4.23h11.57l7.2 4 .38-4.06c2.04-.3 3.62-2.05 3.62-4.17V7.73c0-2.33-1.9-4.23-4.23-4.23z"/></g><g fill="none" stroke="#000000" stroke-miterlimit="10"><path d="M635 18.5h20M635 8.5h20M635 13.5h20" stroke-dasharray="18.764909742720302,1.2350902572796985" stroke-dashoffset="20"/><path d="M654.27 3.5h-18.54c-2.33 0-4.23 1.9-4.23 4.23v11.54c0 2.33 1.9 4.23 4.23 4.23h11.57l7.2 4 .38-4.06c2.04-.3 3.62-2.05 3.62-4.17V7.73c0-2.33-1.9-4.23-4.23-4.23z"/></g><g fill="none" stroke="#000000" stroke-miterlimit="10"><path d="M665 18.5h20M665 8.5h20M665 13.5h20" stroke-dasharray="19.05903328242266,0.9409667175773406" stroke-dashoffset="20"/><path d="M684.27 3.5h-18.54c-2.33 0-4.23 1.9-4.23 4.23v11.54c0 2.33 1.9 4.23 4.23 4.23h11.57l7.2 4 .38-4.06c2.04-.3 3.62-2.05 3.62-4.17V7.73c0-2.33-1.9-4.23-4.23-4.23z"/></g><g fill="none" stroke="#000000" stroke-miterlimit="10"><path d="M695 18.5h20M695 8.5h20M695 13.5h20" stroke-dasharray="19.304107943412234,0.6958920565877658" stroke-dashoffset="20"/><path d="M714.27 3.5h-18.54c-2.33 0-4.23 1.9-4.23 4.23v11.54c0 2.33 1.9 4.23 4.23 4.23h11.57l7.2 4 .38-4.06c2.04-.3 3.62-2.05 3.62-4.17V7.73c0-2.33-1.9-4.23-4.23-4.23z"/></g><g fill="none" stroke="#000000" stroke-miterlimit="10"><path d="M725 18.5h20M725 8.5h20M725 13.5h20" stroke-dasharray="19.50535035131618,0.49464964868382033" stroke-dashoffset="20"/><path d="M744.27 3.5h-18.54c-2.33 0-4.23 1.9-4.23 4.23v11.54c0 2.33 1.9 4.23 4.23 4.23h11.57l7.2 4 .38-4.06c2.04-.3 3.62-2.05 3.62-4.17V7.73c0-2.33-1.9-4.23-4.23-4.23z"/></g><g fill="none" stroke="#000000" stroke-miterlimit="10"><path d="M755 18.5h20M755 8.5h20M755 13.5h20" stroke-dasharray="19.667172713178434,0.33282728682156426" stroke-dashoffset="20"/><path d="M774.27 3.5h-18.54c-2.33 0-4.23 1.9-4.23 4.23v11.54c0 2.33 1.9 4.23 4.23 4.23h11.57l7.2 4 .38-4.06c2.04-.3 3.62-2.05 3.62-4.17V7.73c0-2.33-1.9-4.23-4.23-4.23z"/></g><g fill="none" stroke="#000000" stroke-miterlimit="10"><path d="M785 18.5h20M785 8.5h20M785 13.5h20" stroke-dasharray="19.79333765383172,0.2066623461682804" stroke-dashoffset="20"/><path d="M804.27 3.5h-18.54c-2.33 0-4.23 1.9-4.23 4.23v11.54c0 2.33 1.9 4.23 4.23 4.23h11.57l7.2 4 .38-4.06c2.04-.3 3.62-2.05 3.62-4.17V7.73c0-2.33-1.9-4.23-4.23-4.23z"/></g><g fill="none" stroke="#000000" stroke-miterlimit="10"><path d="M815 18.5h20M815 8.5h20M815 13.5h20" stroke-dasharray="19.887078574737526,0.1129214252624755" stroke-dashoffset="20"/><path d="M834.27 3.5h-18.54c-2.33 0-4.23 1.9-4.23 4.23v11.54c0 2.33 1.9 4.23 4.23 4.23h11.57l7.2 4 .38-4.06c2.04-.3 3.62-2.05 3.62-4.17V7.73c0-2.33-1.9-4.23-4.23-4.23z"/></g><g fill="none" stroke="#000000" stroke-miterlimit="10"><path d="M845 18.5h20M845 8.5h20M845 13.5h20" stroke-dasharray="19.951193979697475,0.048806020302525344" stroke-dashoffset="20"/><path d="M864.27 3.5h-18.54c-2.33 0-4.23 1.9-4.23 4.23v11.54c0 2.33 1.9 4.23 4.23 4.23h11.57l7.2 4 .38-4.06c2.04-.3 3.62-2.05 3.62-4.17V7.73c0-2.33-1.9-4.23-4.23-4.23z"/></g><g fill="none" stroke="#000000" stroke-miterlimit="10"><path d="M875 18.5h20M875 8.5h20M875 13.5h20" stroke-dasharray="19.988122033114813,0.011877966885187607" stroke-dashoffset="20"/><path d="M894.27 3.5h-18.54c-2.33 0-4.23 1.9-4.23 4.23v11.54c0 2.33 1.9 4.23 4.23 4.23h11.57l7.2 4 .38-4.06c2.04-.3 3.62-2.05 3.62-4.17V7.73c0-2.33-1.9-4.23-4.23-4.23z"/></g><g fill="none" stroke="#000000" stroke-miterlimit="10"><path d="M905 18.5h20M905 8.5h20M905 13.5h20M924.27 3.5h-18.54c-2.33 0-4.23 1.9-4.23 4.23v11.54c0 2.33 1.9 4.23 4.23 4.23h11.57l7.2 4 .38-4.06c2.04-.3 3.62-2.05 3.62-4.17V7.73c0-2.33-1.9-4.23-4.23-4.23z"/></g></svg>
