<svg xmlns="http://www.w3.org/2000/svg" viewBox="0 0 930 30" width="930" height="30"><g fill="none" stroke="#000000" stroke-linecap="round" stroke-miterlimit="10"><path d="M15 9.72h8.44l-2.53 18.24H9.09L6.56 9.72H15m0 3.89v14.35m-4.5-14.35l1.97 13.64m7.03-13.64l-1.97 14.35M4.61 8.01h20.78"/><path d="M11.95 7.07h6.1" stroke-width="2"/></g><g fill="none" stroke="#000000" stroke-linecap="round" stroke-miterlimit="10"><path d="M45 9.72h8.44l-2.53 18.24H39.09L36.56 9.72H45m0 3.89v14.35m-4.5-14.35l1.97 13.64m7.03-13.64l-1.97 14.35M34.61 7.998h20.78"/><path d="M41.95 7.058h6.1" stroke-width="2"/></g><g fill="none" stroke="#000000" stroke-linecap="round" stroke-miterlimit="10"><path d="M75 9.72h8.44l-2.53 18.24H69.09L66.56 9.72H75m0 3.89v14.35m-4.5-14.35l1.97 13.64m7.03-13.64l-1.97 14.35M64.61 7.957h20.78"/><path d="M71.95 7.017h6.1" stroke-width="2"/></g><g fill="none" stroke="#000000" stroke-linecap="round" stroke-miterlimit="10"><path d="M105 9.72h8.44l-2.53 18.24H99.09L96.56 9.72H105m0 3.89v14.35m-4.5-14.35l1.97 13.64m7.03-13.64l-1.97 14.35M94.61 7.881h20.78"/><path d="M101.95 6.941h6.1" stroke-width="2"/></g><g fill="none" stroke="#000000" stroke-linecap="round" stroke-miterlimit="10"><path d="M135 9.72h8.44l-2.53 18.24h-11.82l-2.53-18.24H135m0 3.89v14.35m-4.5-14.35l1.97 13.64m7.03-13.64l-1.97 14.35M124.61 7.76h20.78"/><path d="M131.95 6.82h6.1" stroke-width="2"/></g><g fill="none" stroke="#000000" stroke-linecap="round" stroke-miterlimit="10"><path d="M165 9.72h8.44l-2.53 18.24h-11.82l-2.53-18.24H165m0 3.89v14.35m-4.5-14.35l1.97 13.64m7.03-13.64l-1.97 14.35M154.61 7.584h20.78"/><path d="M161.95 6.644h6.1" stroke-width="2"/></g><g fill="none" stroke="#000000" stroke-linecap="round" stroke-miterlimit="10"><path d="M195 9.72h8.44l-2.53 18.24h-11.82l-2.53-18.24H195m0 3.89v14.35m-4.5-14.35l1.97 13.64m7.03-13.64l-1.97 14.35M184.61 7.34h20.78"/><path d="M191.95 6.4h6.1" stroke-width="2"/></g><g fill="none" stroke="#000000" stroke-linecap="round" stroke-miterlimit="10"><path d="M225 9.72h8.44l-2.53 18.24h-11.82l-2.53-18.24H225m0 3.89v14.35m-4.5-14.35l1.97 13.64m7.03-13.64l-1.97 14.35M214.61 7.018h20.78"/><path d="M221.95 6.078h6.1" stroke-width="2"/></g><g fill="none" stroke="#000000" stroke-linecap="round" stroke-miterlimit="10"><path d="M255 9.72h8.44l-2.53 18.24h-11.82l-2.53-18.24H255m0 3.89v14.35m-4.5-14.35l1.97 13.64m7.03-13.64l-1.97 14.35M244.61 6.62h20.78"/><path d="M251.95 5.68h6.1" stroke-width="2"/></g><g fill="none" stroke="#000000" stroke-linecap="round" stroke-miterlimit="10"><path d="M285 9.72h8.44l-2.53 18.24h-11.82l-2.53-18.24H285m0 3.89v14.35m-4.5-14.35l1.97 13.64m7.03-13.64l-1.97 14.35M274.61 6.174h20.78"/><path d="M281.95 5.234h6.1" stroke-width="2"/></g><g fill="none" stroke="#000000" stroke-linecap="round" stroke-miterlimit="10"><path d="M315 9.72h8.44l-2.53 18.24h-11.82l-2.53-18.24H315m0 3.89v14.35m-4.5-14.35l1.97 13.64m7.03-13.64l-1.97 14.35M304.61 5.724h20.78"/><path d="M311.95 4.784h6.1" stroke-width="2"/></g><g fill="none" stroke="#000000" stroke-linecap="round" stroke-miterlimit="10"><path d="M345 9.72h8.44l-2.53 18.24h-11.82l-2.53-18.24H345m0 3.89v14.35m-4.5-14.35l1.97 13.64m7.03-13.64l-1.97 14.35M334.61 5.308h20.78"/><path d="M341.95 4.368h6.1" stroke-width="2"/></g><g fill="none" stroke="#000000" stroke-linecap="round" stroke-miterlimit="10"><path d="M375 9.72h8.44l-2.53 18.24h-11.82l-2.53-18.24H375m0 3.89v14.35m-4.5-14.35l1.97 13.64m7.03-13.64l-1.97 14.35M364.61 4.942h20.78"/><path d="M371.95 4.002h6.1" stroke-width="2"/></g><g fill="none" stroke="#000000" stroke-linecap="round" stroke-miterlimit="10"><path d="M405 9.72h8.44l-2.53 18.24h-11.82l-2.53-18.24H405m0 3.89v14.35m-4.5-14.35l1.97 13.64m7.03-13.64l-1.97 14.35M394.61 4.628h20.78"/><path d="M401.95 3.688h6.1" stroke-width="2"/></g><g fill="none" stroke="#000000" stroke-linecap="round" stroke-miterlimit="10"><path d="M435 9.72h8.44l-2.53 18.24h-11.82l-2.53-18.24H435m0 3.89v14.35m-4.5-14.35l1.97 13.64m7.03-13.64l-1.97 14.35M424.61 4.36h20.78"/><path d="M431.95 3.42h6.1" stroke-width="2"/></g><g fill="none" stroke="#000000" stroke-linecap="round" stroke-miterlimit="10"><path d="M465 9.72h8.44l-2.53 18.24h-11.82l-2.53-18.24H465m0 3.89v14.35m-4.5-14.35l1.97 13.64m7.03-13.64l-1.97 14.35M454.61 4.132h20.78"/><path d="M461.95 3.192h6.1" stroke-width="2"/></g><g fill="none" stroke="#000000" stroke-linecap="round" stroke-miterlimit="10"><path d="M495 9.72h8.44l-2.53 18.24h-11.82l-2.53-18.24H495m0 3.89v14.35m-4.5-14.35l1.97 13.64m7.03-13.64l-1.97 14.35M484.61 3.938h20.78"/><path d="M491.95 2.998h6.1" stroke-width="2"/></g><g fill="none" stroke="#000000" stroke-linecap="round" stroke-miterlimit="10"><path d="M525 9.72h8.44l-2.53 18.24h-11.82l-2.53-18.24H525m0 3.89v14.35m-4.5-14.35l1.97 13.64m7.03-13.64l-1.97 14.35M514.61 3.772h20.78"/><path d="M521.95 2.832h6.1" stroke-width="2"/></g><g fill="none" stroke="#000000" stroke-linecap="round" stroke-miterlimit="10"><path d="M555 9.72h8.44l-2.53 18.24h-11.82l-2.53-18.24H555m0 3.89v14.35m-4.5-14.35l1.97 13.64m7.03-13.64l-1.97 14.35M544.61 3.63h20.78"/><path d="M551.95 2.69h6.1" stroke-width="2"/></g><g fill="none" stroke="#000000" stroke-linecap="round" stroke-miterlimit="10"><path d="M585 9.72h8.44l-2.53 18.24h-11.82l-2.53-18.24H585m0 3.89v14.35m-4.5-14.35l1.97 13.64m7.03-13.64l-1.97 14.35M574.61 3.509h20.78"/><path d="M581.95 2.569h6.1" stroke-width="2"/></g><g fill="none" stroke="#000000" stroke-linecap="round" stroke-miterlimit="10"><path d="M615 9.72h8.44l-2.53 18.24h-11.82l-2.53-18.24H615m0 3.89v14.35m-4.5-14.35l1.97 13.64m7.03-13.64l-1.97 14.35M604.61 3.406h20.78"/><path d="M611.95 2.466h6.1" stroke-width="2"/></g><g fill="none" stroke="#000000" stroke-linecap="round" stroke-miterlimit="10"><path d="M645 9.72h8.44l-2.53 18.24h-11.82l-2.53-18.24H645m0 3.89v14.35m-4.5-14.35l1.97 13.64m7.03-13.64l-1.97 14.35M634.61 3.319h20.78"/><path d="M641.95 2.379h6.1" stroke-width="2"/></g><g fill="none" stroke="#000000" stroke-linecap="round" stroke-miterlimit="10"><path d="M675 9.72h8.44l-2.53 18.24h-11.82l-2.53-18.24H675m0 3.89v14.35m-4.5-14.35l1.97 13.64m7.03-13.64l-1.97 14.35M664.61 3.245h20.78"/><path d="M671.95 2.305h6.1" stroke-width="2"/></g><g fill="none" stroke="#000000" stroke-linecap="round" stroke-miterlimit="10"><path d="M705 9.72h8.44l-2.53 18.24h-11.82l-2.53-18.24H705m0 3.89v14.35m-4.5-14.35l1.97 13.64m7.03-13.64l-1.97 14.35M694.61 3.184h20.78"/><path d="M701.95 2.244h6.1" stroke-width="2"/></g><g fill="none" stroke="#000000" stroke-linecap="round" stroke-miterlimit="10"><path d="M735 9.72h8.44l-2.53 18.24h-11.82l-2.53-18.24H735m0 3.89v14.35m-4.5-14.35l1.97 13.64m7.03-13.64l-1.97 14.35M724.61 3.134h20.78"/><path d="M731.95 2.194h6.1" stroke-width="2"/></g><g fill="none" stroke="#000000" stroke-linecap="round" stroke-miterlimit="10"><path d="M765 9.72h8.44l-2.53 18.24h-11.82l-2.53-18.24H765m0 3.89v14.35m-4.5-14.35l1.97 13.64m7.03-13.64l-1.97 14.35M754.61 3.093h20.78"/><path d="M761.95 2.153h6.1" stroke-width="2"/></g><g fill="none" stroke="#000000" stroke-linecap="round" stroke-miterlimit="10"><path d="M795 9.72h8.44l-2.53 18.24h-11.82l-2.53-18.24H795m0 3.89v14.35m-4.5-14.35l1.97 13.64m7.03-13.64l-1.97 14.35M784.61 3.062h20.78"/><path d="M791.95 2.122h6.1" stroke-width="2"/></g><g fill="none" stroke="#000000" stroke-linecap="round" stroke-miterlimit="10"><path d="M825 9.72h8.44l-2.53 18.24h-11.82l-2.53-18.24H825m0 3.89v14.35m-4.5-14.35l1.97 13.64m7.03-13.64l-1.97 14.35M814.61 3.038h20.78"/><path d="M821.95 2.098h6.1" stroke-width="2"/></g><g fill="none" stroke="#000000" stroke-linecap="round" stroke-miterlimit="10"><path d="M855 9.72h8.44l-2.53 18.24h-11.82l-2.53-18.24H855m0 3.89v14.35m-4.5-14.35l1.97 13.64m7.03-13.64l-1.97 14.35M844.61 3.022h20.78"/><path d="M851.95 2.082h6.1" stroke-width="2"/></g><g fill="none" stroke="#000000" stroke-linecap="round" stroke-miterlimit="10"><path d="M885 9.72h8.44l-2.53 18.24h-11.82l-2.53-18.24H885m0 3.89v14.35m-4.5-14.35l1.97 13.64m7.03-13.64l-1.97 14.35M874.61 3.013h20.78"/><path d="M881.95 2.073h6.1" stroke-width="2"/></g><g fill="none" stroke="#000000" stroke-linecap="round" stroke-miterlimit="10"><path d="M915 9.72h8.44l-2.53 18.24h-11.82l-2.53-18.24H915m0 3.89v14.35m-4.5-14.35l1.97 13.64m7.03-13.64l-1.97 14.35M904.61 3.01h20.78"/><path d="M911.95 2.07h6.1" stroke-width="2"/></g></svg>
