<svg xmlns="http://www.w3.org/2000/svg" viewBox="0 0 930 30" width="930" height="30"><g fill="none" stroke="#000000" stroke-linecap="round" stroke-miterlimit="10"><path d="M1.5 27.5H0M20.03 2.34l5.61 4.19-11 14.72-6.33 2.92.72-7.11 11-14.72m-5.39 18.91l-5.1-3.81M22.07 3.87l-11 14.72M23.6 5.01l-11 14.72"/></g><g fill="none" stroke="#000000" stroke-linecap="round" stroke-miterlimit="10"><path d="M31.5 27.5h-1.429M50.01 2.339l5.614 4.18-10.973 14.729-6.323 2.928.709-7.108L50.01 2.339m-5.359 18.909l-5.104-3.8M52.056 3.911L41.083 18.549M53.578 5.048L42.605 19.686"/></g><g fill="none" stroke="#000000" stroke-linecap="round" stroke-miterlimit="10"><path d="M61.5 27.5h-1.197M79.945 2.336l5.624 4.146-10.883 14.759-6.298 2.954.674-7.1L79.945 2.336m-5.259 18.905l-5.114-3.768M82.01 4.046L71.127 18.413M83.504 5.174L72.621 19.541"/></g><g fill="none" stroke="#000000" stroke-linecap="round" stroke-miterlimit="10"><path d="M91.5 27.5h-.763M109.822 2.331l5.646 4.082-10.715 14.814L98.5 24.23l.607-7.084 10.715-14.815m-5.069 18.896l-5.136-3.708m12.308-13.222l-10.716 13.864m12.157-12.753L102.65 19.271"/></g><g fill="none" stroke="#000000" stroke-linecap="round" stroke-miterlimit="10"><path d="M121.5 27.5h-.077M139.629 2.323l5.679 3.981-10.45 14.903-6.181 3.079.501-7.06 10.451-14.903m-4.771 18.884l-5.17-3.614m12.101-12.899l-10.45 13.068m11.809-11.985l-10.451 13.068"/></g><g fill="none" stroke="#000000" stroke-linecap="round" stroke-miterlimit="10"><path d="M151.5 27.5h.926M169.347 2.311l5.728 3.833-10.064 15.032-6.075 3.192.347-7.025 10.064-15.032m-4.336 18.865l-5.218-3.475m11.799-12.426l-10.064 11.903m11.302-10.86l-10.064 11.903"/></g><g fill="none" stroke="#000000" stroke-linecap="round" stroke-miterlimit="10"><path d="M181.5 27.5h2.317M198.954 2.294l5.797 3.629-9.527 15.21-5.928 3.349.132-6.977 9.526-15.211m-3.73 18.839l-5.286-3.282m11.379-11.77l-9.526 10.287m10.597-9.299l-9.527 10.286"/></g><g fill="none" stroke="#000000" stroke-linecap="round" stroke-miterlimit="10"><path d="M211.5 27.5h4.156M228.436 2.273l5.886 3.358-8.817 15.446-5.734 3.555-.152-6.913 8.817-15.446m-2.931 18.804l-5.376-3.028m10.826-10.902l-8.817 8.151m9.666-7.238l-8.817 8.151"/></g><g fill="none" stroke="#000000" stroke-linecap="round" stroke-miterlimit="10"><path d="M241.5 27.5h6.425M257.797 2.245l5.997 3.025-7.942 15.738-5.496 3.81-.5-6.835 7.941-15.738m-1.945 18.763l-5.486-2.714m10.141-9.833l-7.941 5.516m8.518-4.693l-7.942 5.516"/></g><g fill="none" stroke="#000000" stroke-linecap="round" stroke-miterlimit="10"><path d="M271.5 27.5h8.968M287.081 2.215l6.12 2.651-6.96 16.064-5.228 4.096-.892-6.747 6.96-16.064m-.84 18.715l-5.61-2.362m9.375-8.634l-6.96 2.563m7.23-1.842l-6.96 2.563"/></g><g fill="none" stroke="#000000" stroke-linecap="round" stroke-miterlimit="10"><path d="M301.5 27.5h11.532M316.358 2.185l6.246 2.274-5.97 16.393-4.959 4.383-1.287-6.657 5.97-16.393m.276 18.667l-5.736-2.008m8.602-7.425l-5.97-.415m5.932 1.034l-5.97-.415"/></g><g fill="none" stroke="#000000" stroke-linecap="round" stroke-miterlimit="10"><path d="M331.5 27.5h13.903M345.69 2.156l6.361 1.926-5.055 16.698-4.708 4.649-1.653-6.575 5.055-16.698m1.306 18.624l-5.851-1.681m7.888-6.306l-5.055-3.169m4.731 3.693l-5.055-3.169"/></g><g fill="none" stroke="#000000" stroke-linecap="round" stroke-miterlimit="10"><path d="M361.5 27.5h15.987M375.103 2.131l6.463 1.619-4.251 16.966-4.489 4.884-1.974-6.503 4.251-16.966m2.212 18.585l-5.953-1.392m7.26-5.324l-4.251-5.59m3.676 6.031l-4.25-5.59"/></g><g fill="none" stroke="#000000" stroke-linecap="round" stroke-miterlimit="10"><path d="M391.5 27.5h17.778M404.598 2.11l6.551 1.356-3.56 17.196-4.301 5.084-2.249-6.44 3.559-17.196m2.991 18.552l-6.04-1.145m6.72-4.479l-3.56-7.67m2.769 8.039l-3.559-7.67"/></g><g fill="none" stroke="#000000" stroke-linecap="round" stroke-miterlimit="10"><path d="M421.5 27.5h19.304M434.168 2.092l6.625 1.131-2.97 17.392-4.14 5.256-2.485-6.388 2.97-17.391m3.655 18.523l-6.115-.934m6.26-3.759l-2.971-9.442m1.997 9.75l-2.971-9.442"/></g><g fill="none" stroke="#000000" stroke-linecap="round" stroke-miterlimit="10"><path d="M451.5 27.5h20.603M463.802 2.076l6.688.941-2.469 17.558-4.003 5.402-2.685-6.342 2.469-17.559m4.219 18.499l-6.178-.754m5.868-3.146l-2.468-10.952m1.338 11.207l-2.469-10.951"/></g><g fill="none" stroke="#000000" stroke-linecap="round" stroke-miterlimit="10"><path d="M481.5 27.5h21.711M493.49 2.063l6.742.778-2.041 17.7-3.887 5.527-2.855-6.304 2.041-17.701m4.701 18.478l-6.232-.601m5.534-2.624l-2.041-12.237m.777 12.449L494.188 5.29"/></g><g fill="none" stroke="#000000" stroke-linecap="round" stroke-miterlimit="10"><path d="M511.5 27.5h22.657M523.224 2.052l6.788.638-1.676 17.823-3.788 5.632-3.001-6.271 1.677-17.822m5.112 18.461l-6.279-.471m5.249-2.178L525.63 4.528m.299 13.51l-1.676-13.336"/></g><g fill="none" stroke="#000000" stroke-linecap="round" stroke-miterlimit="10"><path d="M541.5 27.5h23.465M552.996 2.042l6.828.52-1.365 17.926-3.702 5.723-3.125-6.243 1.364-17.926m5.463 18.446l-6.317-.359m5.005-1.797l-1.364-14.274m-.111 14.416l-1.364-14.275"/></g><g fill="none" stroke="#000000" stroke-linecap="round" stroke-miterlimit="10"><path d="M571.5 27.5h24.155M582.802 2.034l6.861.418-1.098 18.015-3.63 5.8-3.232-6.218 1.099-18.015m5.763 18.433l-6.352-.263m4.798-1.472l-1.098-15.076m-.46 15.19L584.355 3.77"/></g><g fill="none" stroke="#000000" stroke-linecap="round" stroke-miterlimit="10"><path d="M601.5 27.5h24.742M612.636 2.027l6.89.332-.871 18.09-3.568 5.866-3.322-6.198.871-18.09m6.019 18.422l-6.38-.182m4.62-1.195l-.871-15.758m-.757 15.848l-.871-15.757"/></g><g fill="none" stroke="#000000" stroke-linecap="round" stroke-miterlimit="10"><path d="M631.5 27.5h25.24M642.496 2.021l6.914.259-.679 18.154-3.516 5.922-3.398-6.181.679-18.154m6.235 18.413l-6.404-.114m4.47-.96l-.679-16.335m-1.009 16.406l-.679-16.336"/></g><g fill="none" stroke="#000000" stroke-linecap="round" stroke-miterlimit="10"><path d="M661.5 27.5h25.659M672.378 2.016l6.934.197-.517 18.208-3.471 5.969-3.464-6.166.518-18.208m6.417 18.405l-6.425-.055m4.344-.763l-.517-16.822m-1.221 16.876l-.518-16.823"/></g><g fill="none" stroke="#000000" stroke-linecap="round" stroke-miterlimit="10"><path d="M691.5 27.5h26.008M702.279 2.012l6.952.146-.383 18.252-3.434 6.009-3.517-6.155.382-18.252m6.569 18.398l-6.441-.007m4.239-.597l-.383-17.229m-1.398 17.268l-.383-17.228"/></g><g fill="none" stroke="#000000" stroke-linecap="round" stroke-miterlimit="10"><path d="M721.5 27.5h26.295M732.199 2.008l6.965.104-.272 18.29-3.404 6.04-3.561-6.144.272-18.29m6.693 18.394l-6.455.032m4.152-.462l-.272-17.562M734.774 20l-.272-17.561"/></g><g fill="none" stroke="#000000" stroke-linecap="round" stroke-miterlimit="10"><path d="M751.5 27.5h26.526M762.134 2.006l6.976.069-.183 18.319-3.379 6.067-3.597-6.136.183-18.319m6.793 18.388l-6.466.065m4.083-.354l-.184-17.829m-1.659 17.848l-.183-17.829"/></g><g fill="none" stroke="#000000" stroke-linecap="round" stroke-miterlimit="10"><path d="M781.5 27.5h26.706M792.083 2.004l6.986.043-.114 18.342-3.361 6.087-3.625-6.13.114-18.342m6.872 18.385l-6.476.089m4.029-.269l-.114-18.038m-1.75 18.05l-.114-18.038"/></g><g fill="none" stroke="#000000" stroke-linecap="round" stroke-miterlimit="10"><path d="M811.5 27.5h26.839M822.045 2.002l6.992.024-.062 18.359-3.347 6.102-3.645-6.126.062-18.359m6.93 18.383l-6.482.108m3.989-.206l-.062-18.193m-1.819 18.199L824.539 2.1"/></g><g fill="none" stroke="#000000" stroke-linecap="round" stroke-miterlimit="10"><path d="M841.5 27.5h26.93M852.02 2.001l6.996.01-.027 18.371-3.337 6.112-3.659-6.122.027-18.371m6.969 18.381l-6.486.121m3.961-.163l-.027-18.3m-1.865 18.302l-.027-18.299"/></g><g fill="none" stroke="#000000" stroke-linecap="round" stroke-miterlimit="10"><path d="M871.5 27.5h26.983M882.005 2l6.999.003-.007 18.378-3.331 6.118-3.668-6.121L882.005 2m6.992 18.381l-6.489.127m3.945-.138l-.006-18.36m-1.892 18.361l-.006-18.36"/></g><g fill="none" stroke="#000000" stroke-linecap="round" stroke-miterlimit="10"><path d="M901.5 27.5h27M912 2h7v18.38l-3.33 6.12-3.67-6.12V2m7 18.38l-6.49.13m3.94-.13V2m-1.9 18.38V2"/></g></svg>
