<svg xmlns="http://www.w3.org/2000/svg" viewBox="0 0 930 30" width="930" height="30"><g fill="#000000"><path d="M28.16 14.42L22.9 9.16c-.33-.33-.85-.33-1.17 0-.33.33-.33.85 0 1.17l3.85 3.85H8.77c-.46 0-.83.37-.83.83 0 .46.37.83.83.83h16.8l-3.85 3.85c-.33.33-.33.85 0 1.17.16.16.37.25.58.25.21 0 .42-.08.58-.25l5.26-5.26c.34-.34.34-.86.02-1.18z"/><path d="M11.79 27.8h-6.3c-1.71 0-3.1-1.67-3.1-3.71V5.91c0-2.05 1.39-3.71 3.1-3.71h6.4c.38 0 .69-.37.69-.83 0-.46-.31-.83-.69-.83h-6.4C3.01.55 1 2.96 1 5.91v18.17c0 2.96 2.01 5.37 4.49 5.37h6.3c.38 0 .69-.37.69-.83 0-.46-.31-.82-.69-.82z"/></g><g fill="#000000"><path d="M58.16 14.42L52.9 9.16c-.33-.33-.85-.33-1.17 0-.33.33-.33.85 0 1.17l3.85 3.85H38.77c-.46 0-.83.37-.83.83 0 .46.37.83.83.83h16.8l-3.85 3.85c-.33.33-.33.85 0 1.17.16.16.37.25.58.25.21 0 .42-.08.58-.25l5.26-5.26c.34-.34.34-.86.02-1.18z"/><path d="M41.784 27.8h-6.297c-1.709 0-3.098-1.67-3.098-3.71V5.91c0-2.05 1.389-3.71 3.098-3.71h6.397c.38 0 .69-.37.69-.83 0-.46-.31-.83-.69-.83h-6.396C33.009.55 31 2.96 31 5.91v18.17c0 2.96 2.009 5.37 4.488 5.37h6.296c.38 0 .69-.37.69-.83 0-.46-.31-.82-.69-.82z"/></g><g fill="#000000"><path d="M88.16 14.42l-5.259-5.26c-.33-.33-.85-.33-1.169 0-.33.33-.33.85 0 1.17l3.849 3.85H68.774c-.459 0-.829.37-.829.83 0 .46.37.83.829.83h16.797l-3.849 3.85c-.33.33-.33.85 0 1.17.159.16.369.25.579.25.21 0 .42-.08.58-.25l5.259-5.26c.34-.34.34-.86.02-1.18z"/><path d="M71.764 27.8h-6.285c-1.706 0-3.092-1.67-3.092-3.71V5.91c0-2.05 1.386-3.71 3.092-3.71h6.385c.379 0 .689-.37.689-.83 0-.46-.31-.83-.689-.83h-6.385C63.005.55 61 2.96 61 5.91v18.17c0 2.96 2.005 5.37 4.479 5.37h6.285c.38 0 .689-.37.689-.83 0-.46-.309-.82-.689-.82z"/></g><g fill="#000000"><path d="M118.161 14.42l-5.249-5.26c-.329-.33-.848-.33-1.167 0-.33.33-.33.85 0 1.17l3.841 3.85H98.814c-.459 0-.829.37-.829.83 0 .46.37.83.829.83h16.762l-3.841 3.85c-.329.33-.329.85 0 1.17.159.16.369.25.579.25.209 0 .419-.08.578-.25l5.249-5.26c.339-.34.339-.86.02-1.18z"/><path d="M101.728 27.8h-6.264c-1.7 0-3.082-1.67-3.082-3.71V5.91c0-2.05 1.382-3.71 3.082-3.71h6.363c.378 0 .686-.37.686-.83 0-.46-.308-.83-.686-.83h-6.363C92.998.55 91 2.96 91 5.91v18.17c0 2.96 1.999 5.37 4.464 5.37h6.264c.378 0 .686-.37.686-.83 0-.46-.308-.82-.686-.82z"/></g><g fill="#000000"><path d="M148.162 14.42l-5.225-5.26c-.328-.33-.845-.33-1.163 0-.327.33-.327.85 0 1.17l3.825 3.85h-16.698c-.457 0-.825.37-.825.83 0 .46.368.83.825.83h16.688l-3.824 3.85c-.328.33-.328.85 0 1.17.158.16.367.25.576.25.208 0 .417-.08.576-.25l5.225-5.26c.337-.34.337-.86.02-1.18z"/><path d="M131.67 27.8h-6.23c-1.691 0-3.066-1.67-3.066-3.71V5.91c0-2.05 1.375-3.71 3.066-3.71h6.329c.376 0 .682-.37.682-.83 0-.46-.306-.83-.682-.83h-6.329C122.988.55 121 2.96 121 5.91v18.17c0 2.96 1.988 5.37 4.44 5.37h6.23c.376 0 .683-.37.683-.83 0-.46-.307-.82-.683-.82z"/></g><g fill="#000000"><path d="M178.163 14.42l-5.185-5.26c-.325-.33-.838-.33-1.154 0-.325.33-.325.85 0 1.17l3.796 3.85h-16.571c-.453 0-.818.37-.818.83 0 .46.365.83.818.83h16.561l-3.795 3.85c-.325.33-.325.85 0 1.17.158.16.365.25.572.25.207 0 .414-.08.572-.25l5.185-5.26c.335-.34.335-.86.019-1.18z"/><path d="M161.585 27.8h-6.181c-1.678 0-3.041-1.67-3.041-3.71V5.91c0-2.05 1.363-3.71 3.041-3.71h6.279c.373 0 .677-.37.677-.83 0-.46-.304-.829-.677-.829h-6.278C152.972.55 151 2.96 151 5.91v18.17c0 2.96 1.973 5.37 4.405 5.37h6.181c.373 0 .677-.37.677-.83 0-.46-.305-.82-.678-.82z"/></g><g fill="#000000"><path d="M208.166 14.42l-5.125-5.26c-.321-.33-.828-.33-1.14 0-.321.33-.321.85 0 1.17l3.751 3.85h-16.377c-.448 0-.808.37-.808.83 0 .46.36.83.808.83h16.368l-3.751 3.85c-.321.33-.321.85 0 1.17.156.16.361.25.565.25.205 0 .41-.08.566-.25l5.124-5.26c.331-.34.331-.86.019-1.18z"/><path d="M191.467 27.8h-6.112c-1.659 0-3.008-1.67-3.008-3.71V5.91c0-2.05 1.349-3.71 3.008-3.71h6.21c.369 0 .669-.37.669-.83 0-.46-.3-.829-.669-.829h-6.209C182.95.55 181 2.96 181 5.91v18.17c0 2.96 1.951 5.37 4.356 5.37h6.113c.369 0 .669-.37.669-.83 0-.46-.302-.82-.671-.82z"/></g><g fill="#000000"><path d="M238.17 14.42l-5.039-5.26c-.315-.33-.813-.33-1.121 0-.315.33-.315.85 0 1.17l3.688 3.85h-16.099c-.441 0-.795.37-.795.83 0 .46.354.83.795.83h16.091l-3.687 3.85c-.316.33-.316.85 0 1.17.152.16.355.25.555.25.202 0 .403-.08.556-.25l5.038-5.26c.324-.34.324-.86.018-1.18z"/><path d="M221.312 27.8h-6.022c-1.635 0-2.964-1.67-2.964-3.71V5.91c0-2.05 1.329-3.71 2.964-3.71h6.118c.364 0 .66-.37.66-.83 0-.46-.296-.828-.66-.828h-6.116C212.921.55 211 2.96 211 5.91v18.17c0 2.96 1.923 5.37 4.292 5.37h6.022c.364 0 .66-.37.66-.83 0-.46-.298-.82-.662-.82z"/></g><g fill="#000000"><path d="M268.175 14.42l-4.921-5.26c-.308-.33-.794-.33-1.095 0-.308.33-.308.85 0 1.17l3.601 3.85h-15.723c-.43 0-.775.37-.775.83 0 .46.345.83.775.83h15.716l-3.601 3.85c-.307.33-.307.85 0 1.17.149.16.348.25.543.25.197 0 .394-.08.543-.25l4.921-5.26c.315-.34.315-.86.016-1.18z"/><path d="M251.12 27.8h-5.911c-1.604 0-2.908-1.67-2.908-3.71V5.91c0-2.05 1.304-3.71 2.908-3.71h6.005c.358 0 .649-.37.649-.83 0-.46-.291-.827-.649-.827h-6.002C242.885.55 241 2.96 241 5.91v18.17c0 2.96 1.888 5.37 4.212 5.37h5.911c.357 0 .648-.37.648-.83 0-.46-.293-.82-.651-.82z"/></g><g fill="#000000"><path d="M298.182 14.42l-4.773-5.26c-.298-.33-.77-.33-1.063 0-.298.33-.298.85 0 1.17l3.492 3.85h-15.246c-.417 0-.752.37-.752.83 0 .46.335.83.752.83h15.242l-3.492 3.85c-.298.33-.298.85 0 1.17.143.16.337.25.526.25.191 0 .382-.08.526-.25l4.773-5.26c.305-.34.305-.86.015-1.18z"/><path d="M280.905 27.8h-5.786c-1.57 0-2.847-1.67-2.847-3.71V5.91c0-2.05 1.277-3.71 2.847-3.71h5.878c.351 0 .635-.37.635-.83 0-.46-.284-.826-.635-.826h-5.874C272.845.55 271 2.96 271 5.91v18.17c0 2.96 1.848 5.37 4.123 5.37h5.785c.351 0 .635-.37.635-.83 0-.46-.288-.82-.638-.82z"/></g><g fill="#000000"><path d="M328.189 14.42l-4.604-5.26c-.286-.33-.741-.33-1.025 0-.286.33-.286.85 0 1.17l3.368 3.85h-14.704c-.402 0-.725.37-.725.83 0 .46.323.83.725.83h14.701l-3.368 3.85c-.286.33-.286.85 0 1.17.139.16.327.25.508.25.185 0 .369-.08.507-.25l4.604-5.26c.293-.34.293-.86.013-1.18z"/><path d="M310.688 27.8h-5.66c-1.536 0-2.784-1.67-2.784-3.71V5.91c0-2.05 1.248-3.71 2.784-3.71h5.751c.343 0 .621-.37.621-.83 0-.46-.278-.825-.621-.825h-5.746C302.804.55 301 2.96 301 5.91v18.17c0 2.96 1.809 5.37 4.033 5.37h5.66c.343 0 .621-.37.621-.83 0-.46-.283-.82-.626-.82z"/></g><g fill="#000000"><path d="M358.197 14.42l-4.433-5.26c-.275-.33-.713-.33-.987 0-.275.33-.275.85 0 1.17l3.242 3.85h-14.153c-.387 0-.698.37-.698.83 0 .46.311.83.698.83h14.152l-3.242 3.85c-.275.33-.275.85 0 1.17.133.16.315.25.489.25.178 0 .356-.08.488-.25l4.433-5.26c.28-.34.28-.86.011-1.18zM340.488 27.8h-5.544c-1.504 0-2.727-1.67-2.727-3.71V5.91c0-2.05 1.223-3.71 2.727-3.71h5.633c.336 0 .609-.37.609-.83 0-.46-.273-.825-.609-.825h-5.627C332.767.55 331 2.96 331 5.91v18.17c0 2.96 1.772 5.37 3.95 5.37h5.543c.337 0 .609-.37.609-.83 0-.46-.278-.82-.614-.82z"/></g><g fill="#000000"><path d="M388.204 14.42l-4.275-5.26c-.264-.33-.686-.33-.952 0-.265.33-.265.85 0 1.17l3.126 3.85h-13.646c-.373 0-.672.37-.672.83 0 .46.299.83.672.83h13.647l-3.126 3.85c-.265.33-.265.85 0 1.17.127.16.305.25.471.25.172 0 .344-.08.471-.25l4.274-5.26c.27-.34.27-.86.01-1.18zM370.311 27.8h-5.441c-1.477 0-2.676-1.67-2.676-3.71V5.91c0-2.05 1.199-3.71 2.676-3.71h5.529c.331 0 .598-.37.598-.83 0-.46-.267-.824-.598-.824h-5.523C362.734.55 361 2.96 361 5.91v18.17c0 2.96 1.74 5.37 3.876 5.37h5.441c.331 0 .598-.37.598-.83 0-.46-.273-.82-.604-.82z"/></g><g fill="#000000"><path d="M418.21 14.42l-4.137-5.26c-.255-.33-.664-.33-.922 0-.255.33-.255.85 0 1.17l3.025 3.85h-13.204c-.361 0-.65.37-.65.83 0 .46.289.83.65.83h13.206l-3.024 3.85c-.256.33-.256.85 0 1.17.123.16.295.25.456.25.166 0 .333-.08.456-.25l4.136-5.26c.259-.34.259-.86.008-1.18zM400.16 27.8h-5.353c-1.453 0-2.633-1.67-2.633-3.71V5.91c0-2.05 1.18-3.71 2.633-3.71h5.439c.326 0 .589-.37.589-.83 0-.46-.263-.823-.589-.823h-5.432C392.706.55 391 2.96 391 5.91v18.17c0 2.96 1.712 5.37 3.814 5.37h5.353c.325 0 .588-.37.588-.83 0-.46-.269-.82-.595-.82z"/></g><g fill="#000000"><path d="M448.215 14.42l-4.019-5.26c-.248-.33-.645-.33-.896 0-.248.33-.248.85 0 1.17l2.938 3.85h-12.827c-.351 0-.632.37-.632.83 0 .46.281.83.632.83h12.831l-2.939 3.85c-.247.33-.247.85 0 1.17.119.16.288.25.443.25.162 0 .324-.08.443-.25l4.02-5.26c.25-.34.25-.86.006-1.18zM430.031 27.8h-5.278c-1.433 0-2.597-1.67-2.597-3.71V5.91c0-2.05 1.164-3.71 2.597-3.71h5.363c.322 0 .581-.37.581-.83 0-.46-.259-.823-.581-.823h-5.356C422.682.55 421 2.96 421 5.91v18.17c0 2.96 1.689 5.37 3.76 5.37h5.278c.322 0 .581-.37.581-.83 0-.46-.267-.82-.588-.82z"/></g><g fill="#000000"><path d="M478.219 14.42l-3.92-5.26c-.241-.33-.628-.33-.874 0-.241.33-.241.85 0 1.17l2.866 3.85h-12.51c-.342 0-.615.37-.615.83 0 .46.273.83.615.83h12.514l-2.865 3.85c-.241.33-.241.85 0 1.17.115.16.281.25.432.25.158 0 .316-.08.432-.25l3.92-5.26c.244-.34.244-.86.005-1.18zM459.921 27.8h-5.214c-1.416 0-2.565-1.67-2.565-3.71V5.91c0-2.05 1.149-3.71 2.565-3.71h5.298c.318 0 .574-.37.574-.83 0-.46-.256-.822-.574-.822h-5.291C452.661.55 451 2.96 451 5.91v18.17c0 2.96 1.669 5.37 3.714 5.37h5.215c.318 0 .573-.37.573-.83 0-.46-.263-.82-.581-.82z"/></g><g fill="#000000"><path d="M508.223 14.42l-3.837-5.26c-.235-.33-.614-.33-.855 0-.236.33-.236.85 0 1.17l2.804 3.85h-12.241c-.334 0-.602.37-.602.83 0 .46.268.83.602.83h12.247l-2.804 3.85c-.236.33-.236.85 0 1.17.112.16.275.25.422.25.155 0 .31-.08.423-.25l3.837-5.26c.237-.34.237-.86.004-1.18zM489.827 27.8h-5.16c-1.4 0-2.538-1.67-2.538-3.71V5.91c0-2.05 1.138-3.71 2.538-3.71h5.244c.315 0 .568-.37.568-.83 0-.46-.253-.822-.568-.822h-5.235C482.644.55 481 2.96 481 5.91v18.17c0 2.96 1.652 5.37 3.676 5.37h5.159c.315 0 .568-.37.568-.83 0-.46-.261-.82-.576-.82z"/></g><g fill="#000000"><path d="M538.226 14.42l-3.766-5.26c-.231-.33-.602-.33-.84 0-.231.33-.231.85 0 1.17l2.752 3.85h-12.013c-.328 0-.591.37-.591.83 0 .46.263.83.591.83h12.02l-2.752 3.85c-.231.33-.231.85 0 1.17.11.16.271.25.415.25.152 0 .304-.08.415-.25l3.766-5.26c.232-.34.232-.86.003-1.18zM519.747 27.8h-5.113c-1.388 0-2.515-1.67-2.515-3.71V5.91c0-2.05 1.127-3.71 2.515-3.71h5.196c.312 0 .563-.37.563-.83 0-.46-.251-.822-.563-.822h-5.188C512.629.55 511 2.96 511 5.91v18.17c0 2.96 1.637 5.37 3.642 5.37h5.114c.312 0 .563-.37.563-.83 0-.46-.26-.82-.572-.82z"/></g><g fill="#000000"><path d="M568.229 14.42l-3.706-5.26c-.227-.33-.593-.33-.827 0-.227.33-.227.85 0 1.17l2.708 3.85h-11.821c-.323 0-.581.37-.581.83 0 .46.258.83.581.83h11.828l-2.708 3.85c-.227.33-.227.85 0 1.17.109.16.267.25.409.25.15 0 .299-.08.408-.25l3.706-5.26c.228-.34.228-.86.003-1.18zM549.679 27.8h-5.074c-1.377 0-2.495-1.67-2.495-3.71V5.91c0-2.05 1.118-3.71 2.495-3.71h5.156c.31 0 .559-.37.559-.83 0-.46-.249-.821-.559-.821h-5.147C542.616.55 541 2.96 541 5.91v18.17c0 2.96 1.625 5.37 3.614 5.37h5.074c.31 0 .558-.37.558-.83 0-.46-.257-.82-.567-.82z"/></g><g fill="#000000"><path d="M598.231 14.42l-3.655-5.26c-.224-.33-.584-.33-.816 0-.223.33-.223.85 0 1.17l2.671 3.85h-11.659c-.318 0-.572.37-.572.83 0 .46.254.83.572.83h11.667l-2.671 3.85c-.223.33-.223.85 0 1.17.107.16.264.25.403.25.148 0 .296-.08.402-.25l3.656-5.26c.224-.34.224-.86.002-1.18zM579.621 27.8h-5.04c-1.368 0-2.479-1.67-2.479-3.71V5.91c0-2.05 1.111-3.71 2.479-3.71h5.122c.308 0 .555-.37.555-.83 0-.46-.247-.821-.555-.821h-5.113C572.605.55 571 2.96 571 5.91v18.17c0 2.96 1.614 5.37 3.59 5.37h5.04c.308 0 .555-.37.555-.83 0-.46-.256-.82-.564-.82z"/></g><g fill="#000000"><path d="M628.233 14.42l-3.612-5.26c-.221-.33-.577-.33-.806 0-.221.33-.221.85 0 1.17l2.639 3.85h-11.521c-.314 0-.566.37-.566.83 0 .46.252.83.566.83h11.529l-2.639 3.85c-.221.33-.221.85 0 1.17.105.16.261.25.398.25.146 0 .292-.08.398-.25l3.612-5.26c.222-.34.222-.86.002-1.18zM609.571 27.8h-5.011c-1.36 0-2.465-1.67-2.465-3.71V5.91c0-2.05 1.105-3.71 2.465-3.71h5.093c.306 0 .551-.37.551-.83 0-.46-.245-.821-.551-.821h-5.084C602.596.55 601 2.96 601 5.91v18.17c0 2.96 1.605 5.37 3.569 5.37h5.011c.306 0 .552-.37.552-.83 0-.46-.255-.82-.561-.82z"/></g><g fill="#000000"><path d="M658.234 14.42l-3.576-5.26c-.218-.33-.571-.33-.798 0-.218.33-.218.85 0 1.17l2.613 3.85h-11.405c-.311 0-.56.37-.56.83 0 .46.249.83.56.83h11.414l-2.613 3.85c-.218.33-.218.85 0 1.17.104.16.258.25.394.25.145 0 .29-.08.394-.25l3.576-5.26c.219-.34.219-.86.001-1.18zM639.529 27.8h-4.987c-1.353 0-2.452-1.67-2.452-3.71V5.91c0-2.05 1.099-3.71 2.452-3.71h5.068c.305 0 .549-.37.549-.83 0-.46-.244-.821-.549-.821h-5.058C632.588.55 631 2.96 631 5.91v18.17c0 2.96 1.597 5.37 3.552 5.37h4.986c.305 0 .549-.37.549-.83 0-.46-.253-.82-.558-.82z"/></g><g fill="#000000"><path d="M688.236 14.42l-3.546-5.26c-.216-.33-.566-.33-.791 0-.217.33-.217.85 0 1.17l2.59 3.85h-11.307c-.309 0-.556.37-.556.83 0 .46.247.83.556.83h11.316l-2.59 3.85c-.217.33-.217.85 0 1.17.103.16.256.25.39.25.144 0 .288-.08.391-.25l3.546-5.26c.217-.34.217-.86.001-1.18zM669.493 27.8h-4.965c-1.348 0-2.443-1.67-2.443-3.71V5.91c0-2.05 1.095-3.71 2.443-3.71h5.046c.304 0 .547-.37.547-.83 0-.46-.243-.82-.547-.82h-5.037C662.581.55 661 2.96 661 5.91v18.17c0 2.96 1.591 5.37 3.537 5.37h4.966c.304 0 .547-.37.547-.83 0-.46-.253-.82-.557-.82z"/></g><g fill="#000000"><path d="M718.237 14.42l-3.521-5.26c-.214-.33-.562-.33-.785 0-.215.33-.215.85 0 1.17l2.572 3.85h-11.227c-.307 0-.552.37-.552.83 0 .46.245.83.552.83h11.236l-2.572 3.85c-.215.33-.215.85 0 1.17.102.16.254.25.388.25.142 0 .285-.08.387-.25l3.521-5.26c.215-.34.215-.86.001-1.18zM699.464 27.8h-4.949c-1.343 0-2.434-1.67-2.434-3.71V5.91c0-2.05 1.091-3.71 2.434-3.71h5.03c.302 0 .545-.37.545-.83 0-.46-.243-.82-.545-.82h-5.02C692.576.55 691 2.96 691 5.91v18.17c0 2.96 1.585 5.37 3.525 5.37h4.949c.302 0 .545-.37.545-.83 0-.46-.252-.82-.555-.82z"/></g><g fill="#000000"><path d="M748.238 14.42l-3.5-5.26c-.214-.33-.559-.33-.781 0-.214.33-.214.85 0 1.17l2.556 3.85h-11.16c-.305 0-.548.37-.548.83 0 .46.243.83.548.83h11.17l-2.557 3.85c-.213.33-.213.85 0 1.17.102.16.253.25.386.25.142 0 .283-.08.385-.25l3.5-5.26c.214-.34.214-.86.001-1.18zM729.44 27.8h-4.935c-1.339 0-2.427-1.67-2.427-3.71V5.91c0-2.05 1.088-3.71 2.427-3.71h5.015c.302 0 .544-.37.544-.83 0-.46-.242-.82-.544-.82h-5.005C722.571.55 721 2.96 721 5.91v18.17c0 2.96 1.581 5.37 3.515 5.37h4.934c.302 0 .544-.37.544-.83 0-.46-.251-.82-.553-.82z"/></g><g fill="#000000"><path d="M778.239 14.42l-3.484-5.26c-.212-.33-.556-.33-.778 0-.212.33-.212.85 0 1.17l2.545 3.85h-11.108c-.303 0-.545.37-.545.83 0 .46.242.83.545.83h11.118l-2.545 3.85c-.212.33-.212.85 0 1.17.101.16.252.25.384.25.141 0 .282-.08.383-.25l3.484-5.26c.213-.34.213-.86.001-1.18zM759.42 27.8h-4.923c-1.337 0-2.422-1.67-2.422-3.71V5.91c0-2.05 1.085-3.71 2.422-3.71h5.003c.302 0 .543-.37.543-.83 0-.46-.241-.82-.543-.82h-4.993C752.567.55 751 2.96 751 5.91v18.17c0 2.96 1.577 5.37 3.507 5.37h4.923c.301 0 .542-.37.542-.83 0-.46-.251-.82-.552-.82z"/></g><g fill="#000000"><path d="M808.239 14.42l-3.471-5.26c-.211-.33-.553-.33-.774 0-.212.33-.212.85 0 1.17l2.535 3.85h-11.067c-.302 0-.543.37-.543.83 0 .46.241.83.543.83h11.077l-2.536 3.85c-.211.33-.211.85 0 1.17.101.16.252.25.383.25.14 0 .281-.08.382-.25l3.471-5.26c.211-.34.211-.86 0-1.18zM789.405 27.8h-4.915c-1.333 0-2.417-1.67-2.417-3.71V5.91c0-2.05 1.084-3.71 2.417-3.71h4.995c.301 0 .542-.37.542-.83 0-.46-.241-.82-.542-.82H784.5c-1.935 0-3.5 2.41-3.5 5.36v18.17c0 2.96 1.575 5.37 3.5 5.37h4.915c.301 0 .541-.37.541-.83 0-.46-.25-.82-.551-.82z"/></g><g fill="#000000"><path d="M838.239 14.42l-3.461-5.26c-.211-.33-.552-.33-.772 0-.211.33-.211.85 0 1.17l2.528 3.85h-11.037c-.301 0-.541.37-.541.83 0 .46.24.83.541.83h11.047l-2.529 3.85c-.21.33-.21.85 0 1.17.101.16.251.25.382.25.14 0 .281-.08.381-.25l3.461-5.26c.211-.34.211-.86 0-1.18zM819.394 27.8h-4.908c-1.332 0-2.414-1.67-2.414-3.71V5.91c0-2.05 1.082-3.71 2.414-3.71h4.988c.3 0 .541-.37.541-.83 0-.46-.241-.82-.541-.82h-4.978C812.563.55 811 2.96 811 5.91v18.17c0 2.96 1.572 5.37 3.496 5.37h4.908c.3 0 .54-.37.54-.83 0-.46-.25-.82-.55-.82z"/></g><g fill="#000000"><path d="M868.24 14.42l-3.455-5.26c-.21-.33-.551-.33-.771 0-.211.33-.211.85 0 1.17l2.523 3.85h-11.015c-.301 0-.541.37-.541.83 0 .46.24.83.541.83h11.025l-2.523 3.85c-.211.33-.211.85 0 1.17.1.16.25.25.38.25.14 0 .281-.08.381-.25l3.455-5.26c.21-.34.21-.86 0-1.18zM849.386 27.8h-4.904c-1.33 0-2.411-1.67-2.411-3.71V5.91c0-2.05 1.081-3.71 2.411-3.71h4.984c.3 0 .54-.37.54-.83 0-.46-.24-.82-.54-.82h-4.974C842.561.55 841 2.96 841 5.91v18.17c0 2.96 1.571 5.37 3.492 5.37h4.904c.3 0 .54-.37.54-.83 0-.46-.25-.82-.55-.82z"/></g><g fill="#000000"><path d="M898.24 14.42l-3.451-5.26c-.21-.33-.55-.33-.771 0-.21.33-.21.85 0 1.17l2.521 3.85h-11.003c-.301 0-.541.37-.541.83 0 .46.24.83.541.83h11.013l-2.521 3.85c-.21.33-.21.85 0 1.17.101.16.251.25.381.25.14 0 .28-.08.38-.25l3.451-5.26c.21-.34.21-.86 0-1.18zM879.381 27.8h-4.9c-1.331 0-2.411-1.67-2.411-3.71V5.91c0-2.05 1.08-3.71 2.411-3.71h4.98c.3 0 .541-.37.541-.83 0-.46-.241-.82-.541-.82h-4.97C872.56.55 871 2.96 871 5.91v18.17c0 2.96 1.57 5.37 3.491 5.37h4.9c.3 0 .541-.37.541-.83 0-.46-.251-.82-.551-.82z"/></g><g fill="#000000"><path d="M928.24 14.42l-3.45-5.26c-.21-.33-.55-.33-.77 0-.21.33-.21.85 0 1.17l2.52 3.85h-11c-.3 0-.54.37-.54.83 0 .46.24.83.54.83h11.01l-2.52 3.85c-.21.33-.21.85 0 1.17.1.16.25.25.38.25.14 0 .28-.08.38-.25l3.45-5.26c.21-.34.21-.86 0-1.18zM909.38 27.8h-4.9c-1.33 0-2.41-1.67-2.41-3.71V5.91c0-2.05 1.08-3.71 2.41-3.71h4.98c.3 0 .54-.37.54-.83 0-.46-.24-.82-.54-.82h-4.97c-1.93 0-3.49 2.41-3.49 5.36v18.17c0 2.96 1.57 5.37 3.49 5.37h4.9c.3 0 .54-.37.54-.83 0-.46-.25-.82-.55-.82z"/></g></svg>
