<svg xmlns="http://www.w3.org/2000/svg" viewBox="0 0 930 30" width="930" height="30"><g fill="none" stroke="#000000" stroke-width="1.5" stroke-linecap="round" stroke-miterlimit="10"><path d="M15 7.75v15.5M7.5 15h15"/></g><g fill="none" stroke="#000000" stroke-width="1.5" stroke-linecap="round" stroke-miterlimit="10"><path d="M45 7.737v15.524M37.488 15h15.024"/></g><g fill="none" stroke="#000000" stroke-width="1.5" stroke-linecap="round" stroke-miterlimit="10"><path d="M75 7.694v15.601M67.447 15h15.106"/></g><g fill="none" stroke="#000000" stroke-width="1.5" stroke-linecap="round" stroke-miterlimit="10"><path d="M105 7.614V23.36M97.371 15h15.258"/></g><g fill="none" stroke="#000000" stroke-width="1.5" stroke-linecap="round" stroke-miterlimit="10"><path d="M135 7.488v15.974M127.25 15h15.5"/></g><g fill="none" stroke="#000000" stroke-width="1.5" stroke-linecap="round" stroke-miterlimit="10"><path d="M165 7.303v16.309M157.074 15h15.852"/></g><g fill="none" stroke="#000000" stroke-width="1.5" stroke-linecap="round" stroke-miterlimit="10"><path d="M195 7.047v16.772M186.83 15h16.34"/></g><g fill="none" stroke="#000000" stroke-width="1.5" stroke-linecap="round" stroke-miterlimit="10"><path d="M225 6.708v17.385M216.508 15h16.984"/></g><g fill="none" stroke="#000000" stroke-width="1.5" stroke-linecap="round" stroke-miterlimit="10"><path d="M255 6.29v18.142M246.11 15h17.78"/></g><g fill="none" stroke="#000000" stroke-width="1.5" stroke-linecap="round" stroke-miterlimit="10"><path d="M285 5.822v18.989M275.664 15h18.672"/></g><g fill="none" stroke="#000000" stroke-width="1.5" stroke-linecap="round" stroke-miterlimit="10"><path d="M315 5.349v19.844M305.214 15h19.572"/></g><g fill="none" stroke="#000000" stroke-width="1.5" stroke-linecap="round" stroke-miterlimit="10"><path d="M345 4.913v20.634M334.798 15h20.404"/></g><g fill="none" stroke="#000000" stroke-width="1.5" stroke-linecap="round" stroke-miterlimit="10"><path d="M375 4.529v21.329M364.432 15h21.136"/></g><g fill="none" stroke="#000000" stroke-width="1.5" stroke-linecap="round" stroke-miterlimit="10"><path d="M405 4.199v21.926M394.118 15h21.764"/></g><g fill="none" stroke="#000000" stroke-width="1.5" stroke-linecap="round" stroke-miterlimit="10"><path d="M435 3.918v22.434M423.85 15h22.3"/></g><g fill="none" stroke="#000000" stroke-width="1.5" stroke-linecap="round" stroke-miterlimit="10"><path d="M465 3.678v22.868M453.622 15h22.756"/></g><g fill="none" stroke="#000000" stroke-width="1.5" stroke-linecap="round" stroke-miterlimit="10"><path d="M495 3.474v23.237M483.428 15h23.144"/></g><g fill="none" stroke="#000000" stroke-width="1.5" stroke-linecap="round" stroke-miterlimit="10"><path d="M525 3.3v23.552M513.262 15h23.476"/></g><g fill="none" stroke="#000000" stroke-width="1.5" stroke-linecap="round" stroke-miterlimit="10"><path d="M555 3.151v23.822M543.12 15h23.76"/></g><g fill="none" stroke="#000000" stroke-width="1.5" stroke-linecap="round" stroke-miterlimit="10"><path d="M585 3.024v24.052M572.999 15h24.002"/></g><g fill="none" stroke="#000000" stroke-width="1.5" stroke-linecap="round" stroke-miterlimit="10"><path d="M615 2.916v24.247M602.896 15h24.208"/></g><g fill="none" stroke="#000000" stroke-width="1.5" stroke-linecap="round" stroke-miterlimit="10"><path d="M645 2.824v24.414M632.809 15h24.382"/></g><g fill="none" stroke="#000000" stroke-width="1.5" stroke-linecap="round" stroke-miterlimit="10"><path d="M675 2.747V27.3M662.735 15h24.53"/></g><g fill="none" stroke="#000000" stroke-width="1.5" stroke-linecap="round" stroke-miterlimit="10"><path d="M705 2.683v24.669M692.674 15h24.652"/></g><g fill="none" stroke="#000000" stroke-width="1.5" stroke-linecap="round" stroke-miterlimit="10"><path d="M735 2.63v24.765M722.624 15h24.752"/></g><g fill="none" stroke="#000000" stroke-width="1.5" stroke-linecap="round" stroke-miterlimit="10"><path d="M765 2.587v24.842M752.583 15h24.834"/></g><g fill="none" stroke="#000000" stroke-width="1.5" stroke-linecap="round" stroke-miterlimit="10"><path d="M795 2.554v24.902M782.552 15h24.896"/></g><g fill="none" stroke="#000000" stroke-width="1.5" stroke-linecap="round" stroke-miterlimit="10"><path d="M825 2.53v24.946M812.528 15h24.944"/></g><g fill="none" stroke="#000000" stroke-width="1.5" stroke-linecap="round" stroke-miterlimit="10"><path d="M855 2.513V27.49M842.512 15h24.976"/></g><g fill="none" stroke="#000000" stroke-width="1.5" stroke-linecap="round" stroke-miterlimit="10"><path d="M885 2.503v24.994M872.503 15h24.994"/></g><g fill="none" stroke="#000000" stroke-width="1.5" stroke-linecap="round" stroke-miterlimit="10"><path d="M915 2.5v25M902.5 15h25"/></g></svg>
