<svg xmlns="http://www.w3.org/2000/svg" viewBox="0 0 930 30" width="930" height="30"><path d="M15 12.45c-2.02 0-3.66-1.64-3.66-3.66 0-2.02 1.64-3.66 3.66-3.66 2.02 0 3.66 1.64 3.66 3.66 0 2.02-1.64 3.66-3.66 3.66z" fill="#000000"/><path d="M15 5.63c1.74 0 3.16 1.42 3.16 3.16 0 1.74-1.42 3.16-3.16 3.16-1.74 0-3.16-1.42-3.16-3.16 0-1.74 1.42-3.16 3.16-3.16m0-1c-2.3 0-4.16 1.86-4.16 4.16s1.86 4.16 4.16 4.16 4.16-1.86 4.16-4.16S17.3 4.63 15 4.63z" fill="#000000"/><g fill="#000000"><path d="M15 27c-2.87 0-5.62-.87-7.98-2.52C7.22 18.68 10.76 14 15 14s7.79 4.68 7.98 10.48C20.62 26.13 17.87 27 15 27z"/><path d="M15 14.5c3.91 0 7.19 4.32 7.47 9.73-2.23 1.49-4.8 2.27-7.47 2.27s-5.25-.78-7.47-2.27c.28-5.41 3.56-9.73 7.47-9.73m0-1c-4.63 0-8.39 5.01-8.49 11.24C8.9 26.47 11.83 27.5 15 27.5s6.1-1.03 8.49-2.76c-.1-6.23-3.86-11.24-8.49-11.24z"/></g><path d="M24.46 25.99c-.847.73-1.779 1.363-2.779 1.883-.5.26-1.018.492-1.55.693-.532.201-1.079.372-1.638.511-1.12.276-2.29.423-3.493.423-3.64 0-6.96-1.34-9.51-3.55" fill="none" stroke="#000000" stroke-miterlimit="10"/><path d="M45 12.45c-2.02 0-3.66-1.64-3.66-3.66 0-2.02 1.64-3.66 3.66-3.66 2.02 0 3.66 1.64 3.66 3.66 0 2.02-1.64 3.66-3.66 3.66z" fill="#000000"/><path d="M45 5.63c1.74 0 3.16 1.42 3.16 3.16 0 1.74-1.42 3.16-3.16 3.16-1.74 0-3.16-1.42-3.16-3.16 0-1.74 1.42-3.16 3.16-3.16m0-1c-2.3 0-4.16 1.86-4.16 4.16s1.86 4.16 4.16 4.16 4.16-1.86 4.16-4.16S47.3 4.63 45 4.63z" fill="#000000"/><g fill="#000000"><path d="M45 27c-2.87 0-5.62-.87-7.98-2.52C37.22 18.68 40.76 14 45 14s7.79 4.68 7.98 10.48C50.62 26.13 47.87 27 45 27z"/><path d="M45 14.5c3.91 0 7.19 4.32 7.47 9.73-2.23 1.49-4.8 2.27-7.47 2.27s-5.25-.78-7.47-2.27c.28-5.41 3.56-9.73 7.47-9.73m0-1c-4.63 0-8.39 5.01-8.49 11.24 2.39 1.73 5.32 2.76 8.49 2.76s6.1-1.03 8.49-2.76c-.1-6.23-3.86-11.24-8.49-11.24z"/></g><path d="M54.413 25.99c-.852.722-1.787 1.344-2.785 1.851-.499.24-.999.455-1.509.656-.511.201-1.041.387-1.599.545-1.117.296-2.3.458-3.52.458-3.64 0-6.96-1.34-9.51-3.55" fill="none" stroke="#000000" stroke-miterlimit="10"/><path d="M75 12.45c-2.02 0-3.66-1.64-3.66-3.66 0-2.02 1.64-3.66 3.66-3.66 2.02 0 3.66 1.64 3.66 3.66 0 2.02-1.64 3.66-3.66 3.66z" fill="#000000"/><path d="M75 5.63c1.74 0 3.16 1.42 3.16 3.16 0 1.74-1.42 3.16-3.16 3.16-1.74 0-3.16-1.42-3.16-3.16 0-1.74 1.42-3.16 3.16-3.16m0-1c-2.3 0-4.16 1.86-4.16 4.16s1.86 4.16 4.16 4.16 4.16-1.86 4.16-4.16S77.3 4.63 75 4.63z" fill="#000000"/><g fill="#000000"><path d="M75 27c-2.87 0-5.62-.87-7.98-2.52C67.22 18.68 70.76 14 75 14s7.79 4.68 7.98 10.48C80.62 26.13 77.87 27 75 27z"/><path d="M75 14.5c3.91 0 7.19 4.32 7.47 9.73-2.23 1.49-4.8 2.27-7.47 2.27s-5.25-.78-7.47-2.27c.28-5.41 3.56-9.73 7.47-9.73m0-1c-4.63 0-8.39 5.01-8.49 11.24 2.39 1.73 5.32 2.76 8.49 2.76s6.1-1.03 8.49-2.76c-.1-6.23-3.86-11.24-8.49-11.24z"/></g><path d="M84.258 25.99c-.87.694-1.813 1.278-2.803 1.746-.495.172-.937.332-1.378.532-.442.199-.914.437-1.467.659-1.108.359-2.334.573-3.61.573-3.64 0-6.96-1.34-9.51-3.55" fill="none" stroke="#000000" stroke-miterlimit="10"/><path d="M105 12.45c-2.02 0-3.66-1.64-3.66-3.66 0-2.02 1.64-3.66 3.66-3.66 2.02 0 3.66 1.64 3.66 3.66 0 2.02-1.64 3.66-3.66 3.66z" fill="#000000"/><path d="M105 5.63c1.74 0 3.16 1.42 3.16 3.16 0 1.74-1.42 3.16-3.16 3.16-1.74 0-3.16-1.42-3.16-3.16 0-1.74 1.42-3.16 3.16-3.16m0-1c-2.3 0-4.16 1.86-4.16 4.16s1.86 4.16 4.16 4.16 4.16-1.86 4.16-4.16-1.86-4.16-4.16-4.16z" fill="#000000"/><g fill="#000000"><path d="M105 27c-2.87 0-5.62-.87-7.98-2.52.2-5.8 3.74-10.48 7.98-10.48s7.79 4.68 7.98 10.48C110.62 26.13 107.87 27 105 27z"/><path d="M105 14.5c3.91 0 7.19 4.32 7.47 9.73-2.23 1.49-4.8 2.27-7.47 2.27s-5.25-.78-7.47-2.27c.28-5.41 3.56-9.73 7.47-9.73m0-1c-4.63 0-8.39 5.01-8.49 11.24 2.39 1.73 5.32 2.76 8.49 2.76s6.1-1.03 8.49-2.76c-.1-6.23-3.86-11.24-8.49-11.24z"/></g><path d="M113.969 25.989c-.904.642-1.862 1.158-2.836 1.551-.487.047-.823.104-1.134.3-.312.196-.677.531-1.222.873-1.09.476-2.398.787-3.777.787-3.64 0-6.96-1.34-9.51-3.55" fill="none" stroke="#000000" stroke-miterlimit="10"/><path d="M135 12.45c-2.02 0-3.66-1.64-3.66-3.66 0-2.02 1.64-3.66 3.66-3.66 2.02 0 3.66 1.64 3.66 3.66 0 2.02-1.64 3.66-3.66 3.66z" fill="#000000"/><path d="M135 5.63c1.74 0 3.16 1.42 3.16 3.16 0 1.74-1.42 3.16-3.16 3.16-1.74 0-3.16-1.42-3.16-3.16 0-1.74 1.42-3.16 3.16-3.16m0-1c-2.3 0-4.16 1.86-4.16 4.16s1.86 4.16 4.16 4.16 4.16-1.86 4.16-4.16-1.86-4.16-4.16-4.16z" fill="#000000"/><g fill="#000000"><path d="M135 27c-2.87 0-5.62-.87-7.98-2.52.2-5.8 3.74-10.48 7.98-10.48s7.79 4.68 7.98 10.48C140.62 26.13 137.87 27 135 27z"/><path d="M135 14.5c3.91 0 7.19 4.32 7.47 9.73-2.23 1.49-4.8 2.27-7.47 2.27s-5.25-.78-7.47-2.27c.28-5.41 3.56-9.73 7.47-9.73m0-1c-4.63 0-8.39 5.01-8.49 11.24 2.39 1.73 5.32 2.76 8.49 2.76s6.1-1.03 8.49-2.76c-.1-6.23-3.86-11.24-8.49-11.24z"/></g><path d="M143.513 25.988c-.957.561-1.939.967-2.89 1.243-.475-.153-.642-.257-.748-.066-.106.191-.301.677-.833 1.209-1.063.663-2.499 1.126-4.042 1.126-3.64 0-6.96-1.34-9.51-3.55" fill="none" stroke="#000000" stroke-miterlimit="10"/><path d="M165 12.45c-2.02 0-3.66-1.64-3.66-3.66 0-2.02 1.64-3.66 3.66-3.66 2.02 0 3.66 1.64 3.66 3.66 0 2.02-1.64 3.66-3.66 3.66z" fill="#000000"/><path d="M165 5.63c1.74 0 3.16 1.42 3.16 3.16 0 1.74-1.42 3.16-3.16 3.16-1.74 0-3.16-1.42-3.16-3.16 0-1.74 1.42-3.16 3.16-3.16m0-1c-2.3 0-4.16 1.86-4.16 4.16s1.86 4.16 4.16 4.16 4.16-1.86 4.16-4.16-1.86-4.16-4.16-4.16z" fill="#000000"/><g fill="#000000"><path d="M165 27c-2.87 0-5.62-.87-7.98-2.52.2-5.8 3.74-10.48 7.98-10.48s7.79 4.68 7.98 10.48C170.62 26.13 167.87 27 165 27z"/><path d="M165 14.5c3.91 0 7.19 4.32 7.47 9.73-2.23 1.49-4.8 2.27-7.47 2.27s-5.25-.78-7.47-2.27c.28-5.41 3.56-9.73 7.47-9.73m0-1c-4.63 0-8.39 5.01-8.49 11.24 2.39 1.73 5.32 2.76 8.49 2.76s6.1-1.03 8.49-2.76c-.1-6.23-3.86-11.24-8.49-11.24z"/></g><path d="M172.846 25.987c-1.035.441-2.053.687-2.968.791-.457-.444-.378-.784-.183-.6.194.184.246.892-.266 1.701-1.024.934-2.646 1.621-4.429 1.621-3.64 0-6.96-1.34-9.51-3.55" fill="none" stroke="#000000" stroke-miterlimit="10"/><path d="M195 12.45c-2.02 0-3.66-1.64-3.66-3.66 0-2.02 1.64-3.66 3.66-3.66 2.02 0 3.66 1.64 3.66 3.66 0 2.02-1.64 3.66-3.66 3.66z" fill="#000000"/><path d="M195 5.63c1.74 0 3.16 1.42 3.16 3.16 0 1.74-1.42 3.16-3.16 3.16-1.74 0-3.16-1.42-3.16-3.16 0-1.74 1.42-3.16 3.16-3.16m0-1c-2.3 0-4.16 1.86-4.16 4.16s1.86 4.16 4.16 4.16 4.16-1.86 4.16-4.16-1.86-4.16-4.16-4.16z" fill="#000000"/><g fill="#000000"><path d="M195 27c-2.87 0-5.62-.87-7.98-2.52.2-5.8 3.74-10.48 7.98-10.48s7.79 4.68 7.98 10.48C200.62 26.13 197.87 27 195 27z"/><path d="M195 14.5c3.91 0 7.19 4.32 7.47 9.73-2.23 1.49-4.8 2.27-7.47 2.27s-5.25-.78-7.47-2.27c.28-5.41 3.56-9.73 7.47-9.73m0-1c-4.63 0-8.39 5.01-8.49 11.24 2.39 1.73 5.32 2.76 8.49 2.76s6.1-1.03 8.49-2.76c-.1-6.23-3.86-11.24-8.49-11.24z"/></g><path d="M201.919 25.985c-1.143.276-2.209.299-3.075.164-.434-.848-.012-1.516.6-1.342.612.174 1.008 1.191.523 2.384-.969 1.313-2.852 2.309-4.967 2.309-3.64 0-6.96-1.34-9.51-3.55" fill="none" stroke="#000000" stroke-miterlimit="10"/><path d="M225 12.45c-2.02 0-3.66-1.64-3.66-3.66 0-2.02 1.64-3.66 3.66-3.66 2.02 0 3.66 1.64 3.66 3.66 0 2.02-1.64 3.66-3.66 3.66z" fill="#000000"/><path d="M225 5.63c1.74 0 3.16 1.42 3.16 3.16 0 1.74-1.42 3.16-3.16 3.16-1.74 0-3.16-1.42-3.16-3.16 0-1.74 1.42-3.16 3.16-3.16m0-1c-2.3 0-4.16 1.86-4.16 4.16s1.86 4.16 4.16 4.16 4.16-1.86 4.16-4.16-1.86-4.16-4.16-4.16z" fill="#000000"/><g fill="#000000"><path d="M225 27c-2.87 0-5.62-.87-7.98-2.52.2-5.8 3.74-10.48 7.98-10.48s7.79 4.68 7.98 10.48C230.62 26.13 227.87 27 225 27z"/><path d="M225 14.5c3.91 0 7.19 4.32 7.47 9.73-2.23 1.49-4.8 2.27-7.47 2.27s-5.25-.78-7.47-2.27c.28-5.41 3.56-9.73 7.47-9.73m0-1c-4.63 0-8.39 5.01-8.49 11.24 2.39 1.73 5.32 2.76 8.49 2.76s6.1-1.03 8.49-2.76c-.1-6.23-3.86-11.24-8.49-11.24z"/></g><path d="M230.695 25.982c-1.286.057-2.416-.213-3.218-.664-.401-1.381.473-2.483 1.636-2.322 1.163.161 2.013 1.586 1.564 3.287-.897 1.811-3.123 3.217-5.677 3.217-3.64 0-6.96-1.34-9.51-3.55" fill="none" stroke="#000000" stroke-miterlimit="10"/><g><path d="M255 12.45c-2.02 0-3.66-1.64-3.66-3.66 0-2.02 1.64-3.66 3.66-3.66 2.02 0 3.66 1.64 3.66 3.66 0 2.02-1.64 3.66-3.66 3.66z" fill="#000000"/><path d="M255 5.63c1.74 0 3.16 1.42 3.16 3.16 0 1.74-1.42 3.16-3.16 3.16-1.74 0-3.16-1.42-3.16-3.16 0-1.74 1.42-3.16 3.16-3.16m0-1c-2.3 0-4.16 1.86-4.16 4.16s1.86 4.16 4.16 4.16 4.16-1.86 4.16-4.16-1.86-4.16-4.16-4.16z" fill="#000000"/><g fill="#000000"><path d="M255 27c-2.87 0-5.62-.87-7.98-2.52.2-5.8 3.74-10.48 7.98-10.48s7.79 4.68 7.98 10.48C260.62 26.13 257.87 27 255 27z"/><path d="M255 14.5c3.91 0 7.19 4.32 7.47 9.73-2.23 1.49-4.8 2.27-7.47 2.27s-5.25-.78-7.47-2.27c.28-5.41 3.56-9.73 7.47-9.73m0-1c-4.63 0-8.39 5.01-8.49 11.24 2.39 1.73 5.32 2.76 8.49 2.76s6.1-1.03 8.49-2.76c-.1-6.23-3.86-11.24-8.49-11.24z"/></g><path d="M259.185 25.979c-1.462-.213-2.671-.845-3.394-1.685-.361-2.04 1.07-3.677 2.913-3.532 1.844.146 3.253 2.074 2.849 4.401-.808 2.427-3.457 4.337-6.553 4.337-3.64 0-6.96-1.34-9.51-3.55" fill="none" stroke="#000000" stroke-miterlimit="10"/></g><g><path d="M285 12.45c-2.02 0-3.66-1.64-3.66-3.66 0-2.02 1.64-3.66 3.66-3.66 2.02 0 3.66 1.64 3.66 3.66 0 2.02-1.64 3.66-3.66 3.66z" fill="#000000"/><path d="M285 5.63c1.74 0 3.16 1.42 3.16 3.16 0 1.74-1.42 3.16-3.16 3.16-1.74 0-3.16-1.42-3.16-3.16 0-1.74 1.42-3.16 3.16-3.16m0-1c-2.3 0-4.16 1.86-4.16 4.16s1.86 4.16 4.16 4.16 4.16-1.86 4.16-4.16-1.86-4.16-4.16-4.16z" fill="#000000"/><g fill="#000000"><path d="M285 27c-2.87 0-5.62-.87-7.98-2.52.2-5.8 3.74-10.48 7.98-10.48s7.79 4.68 7.98 10.48C290.62 26.13 287.87 27 285 27z"/><path d="M285 14.5c3.91 0 7.19 4.32 7.47 9.73-2.23 1.49-4.8 2.27-7.47 2.27s-5.25-.78-7.47-2.27c.28-5.41 3.56-9.73 7.47-9.73m0-1c-4.63 0-8.39 5.01-8.49 11.24 2.39 1.73 5.32 2.76 8.49 2.76s6.1-1.03 8.49-2.76c-.1-6.23-3.86-11.24-8.49-11.24z"/></g><path d="M287.492 25.975c-1.659-.515-2.958-1.554-3.591-2.83-.316-2.778 1.74-5.015 4.346-4.887 2.605.127 4.643 2.619 4.289 5.648-.709 3.117-3.833 5.594-7.536 5.594-3.64 0-6.96-1.34-9.51-3.55" fill="none" stroke="#000000" stroke-miterlimit="10"/></g><g><path d="M315 12.45c-2.02 0-3.66-1.64-3.66-3.66 0-2.02 1.64-3.66 3.66-3.66 2.02 0 3.66 1.64 3.66 3.66 0 2.02-1.64 3.66-3.66 3.66z" fill="#000000"/><path d="M315 5.63c1.74 0 3.16 1.42 3.16 3.16 0 1.74-1.42 3.16-3.16 3.16-1.74 0-3.16-1.42-3.16-3.16 0-1.74 1.42-3.16 3.16-3.16m0-1c-2.3 0-4.16 1.86-4.16 4.16s1.86 4.16 4.16 4.16 4.16-1.86 4.16-4.16-1.86-4.16-4.16-4.16z" fill="#000000"/><g fill="#000000"><path d="M315 27c-2.87 0-5.62-.87-7.98-2.52.2-5.8 3.74-10.48 7.98-10.48s7.79 4.68 7.98 10.48C320.62 26.13 317.87 27 315 27z"/><path d="M315 14.5c3.91 0 7.19 4.32 7.47 9.73-2.23 1.49-4.8 2.27-7.47 2.27s-5.25-.78-7.47-2.27c.28-5.41 3.56-9.73 7.47-9.73m0-1c-4.63 0-8.39 5.01-8.49 11.24 2.39 1.73 5.32 2.76 8.49 2.76s6.1-1.03 8.49-2.76c-.1-6.23-3.86-11.24-8.49-11.24z"/></g><path d="M315.786 25.972c-1.859-.82-3.247-2.269-3.79-3.985-.272-3.521 2.415-6.363 5.789-6.254 3.374.109 6.044 3.169 5.741 6.907-.608 3.813-4.21 6.86-8.526 6.86-3.64 0-6.96-1.34-9.51-3.55" fill="none" stroke="#000000" stroke-miterlimit="10"/></g><g><path d="M345 12.45c-2.02 0-3.66-1.64-3.66-3.66 0-2.02 1.64-3.66 3.66-3.66 2.02 0 3.66 1.64 3.66 3.66 0 2.02-1.64 3.66-3.66 3.66z" fill="#000000"/><path d="M345 5.63c1.74 0 3.16 1.42 3.16 3.16 0 1.74-1.42 3.16-3.16 3.16-1.74 0-3.16-1.42-3.16-3.16 0-1.74 1.42-3.16 3.16-3.16m0-1c-2.3 0-4.16 1.86-4.16 4.16s1.86 4.16 4.16 4.16 4.16-1.86 4.16-4.16-1.86-4.16-4.16-4.16z" fill="#000000"/><g fill="#000000"><path d="M345 27c-2.87 0-5.62-.87-7.98-2.52.2-5.8 3.74-10.48 7.98-10.48s7.79 4.68 7.98 10.48C350.62 26.13 347.87 27 345 27z"/><path d="M345 14.5c3.91 0 7.19 4.32 7.47 9.73-2.23 1.49-4.8 2.27-7.47 2.27s-5.25-.78-7.47-2.27c.28-5.41 3.56-9.73 7.47-9.73m0-1c-4.63 0-8.39 5.01-8.49 11.24 2.39 1.73 5.32 2.76 8.49 2.76s6.1-1.03 8.49-2.76c-.1-6.23-3.86-11.24-8.49-11.24z"/></g><path d="M344.208 25.968c-2.043-1.102-3.515-2.929-3.975-5.052-.229-4.21 3.041-7.611 7.125-7.518 4.085.092 7.341 3.678 7.084 8.071-.515 4.456-4.56 8.031-9.442 8.031-3.64 0-6.96-1.34-9.51-3.55" fill="none" stroke="#000000" stroke-miterlimit="10"/></g><g><path d="M375 12.45c-2.02 0-3.66-1.64-3.66-3.66 0-2.02 1.64-3.66 3.66-3.66 2.02 0 3.66 1.64 3.66 3.66 0 2.02-1.64 3.66-3.66 3.66z" fill="#000000"/><path d="M375 5.63c1.74 0 3.16 1.42 3.16 3.16 0 1.74-1.42 3.16-3.16 3.16-1.74 0-3.16-1.42-3.16-3.16 0-1.74 1.42-3.16 3.16-3.16m0-1c-2.3 0-4.16 1.86-4.16 4.16s1.86 4.16 4.16 4.16 4.16-1.86 4.16-4.16-1.86-4.16-4.16-4.16z" fill="#000000"/><g fill="#000000"><path d="M375 27c-2.87 0-5.62-.87-7.98-2.52.2-5.8 3.74-10.48 7.98-10.48s7.79 4.68 7.98 10.48C380.62 26.13 377.87 27 375 27z"/><path d="M375 14.5c3.91 0 7.19 4.32 7.47 9.73-2.23 1.49-4.8 2.27-7.47 2.27s-5.25-.78-7.47-2.27c.28-5.41 3.56-9.73 7.47-9.73m0-1c-4.63 0-8.39 5.01-8.49 11.24 2.39 1.73 5.32 2.76 8.49 2.76s6.1-1.03 8.49-2.76c-.1-6.23-3.86-11.24-8.49-11.24z"/></g><path d="M372.82 25.965c-2.205-1.35-3.749-3.51-4.136-5.991-.193-4.814 3.589-8.707 8.299-8.629 4.709.078 8.48 4.126 8.264 9.094-.433 5.022-4.867 9.061-10.247 9.061-3.64 0-6.96-1.34-9.51-3.55" fill="none" stroke="#000000" stroke-miterlimit="10"/></g><g><path d="M405 12.45c-2.02 0-3.66-1.64-3.66-3.66 0-2.02 1.64-3.66 3.66-3.66 2.02 0 3.66 1.64 3.66 3.66 0 2.02-1.64 3.66-3.66 3.66z" fill="#000000"/><path d="M405 5.63c1.74 0 3.16 1.42 3.16 3.16 0 1.74-1.42 3.16-3.16 3.16-1.74 0-3.16-1.42-3.16-3.16 0-1.74 1.42-3.16 3.16-3.16m0-1c-2.3 0-4.16 1.86-4.16 4.16s1.86 4.16 4.16 4.16 4.16-1.86 4.16-4.16-1.86-4.16-4.16-4.16z" fill="#000000"/><g fill="#000000"><path d="M405 27c-2.87 0-5.62-.87-7.98-2.52.2-5.8 3.74-10.48 7.98-10.48s7.79 4.68 7.98 10.48C410.62 26.13 407.87 27 405 27z"/><path d="M405 14.5c3.91 0 7.19 4.32 7.47 9.73-2.23 1.49-4.8 2.27-7.47 2.27s-5.25-.78-7.47-2.27c.28-5.41 3.56-9.73 7.47-9.73m0-1c-4.63 0-8.39 5.01-8.49 11.24 2.39 1.73 5.32 2.76 8.49 2.76s6.1-1.03 8.49-2.76c-.1-6.23-3.86-11.24-8.49-11.24z"/></g><path d="M401.628 25.963c-2.343-1.563-3.951-4.01-4.274-6.797-.162-5.334 4.06-9.649 9.306-9.584 5.246.065 9.459 4.51 9.278 9.973-.362 5.508-5.131 9.945-10.938 9.945-3.64 0-6.96-1.34-9.51-3.55" fill="none" stroke="#000000" stroke-miterlimit="10"/></g><g><path d="M435 12.45c-2.02 0-3.66-1.64-3.66-3.66 0-2.02 1.64-3.66 3.66-3.66 2.02 0 3.66 1.64 3.66 3.66 0 2.02-1.64 3.66-3.66 3.66z" fill="#000000"/><path d="M435 5.63c1.74 0 3.16 1.42 3.16 3.16 0 1.74-1.42 3.16-3.16 3.16-1.74 0-3.16-1.42-3.16-3.16 0-1.74 1.42-3.16 3.16-3.16m0-1c-2.3 0-4.16 1.86-4.16 4.16s1.86 4.16 4.16 4.16 4.16-1.86 4.16-4.16-1.86-4.16-4.16-4.16z" fill="#000000"/><g fill="#000000"><path d="M435 27c-2.87 0-5.62-.87-7.98-2.52.2-5.8 3.74-10.48 7.98-10.48s7.79 4.68 7.98 10.48C440.62 26.13 437.87 27 435 27z"/><path d="M435 14.5c3.91 0 7.19 4.32 7.47 9.73-2.23 1.49-4.8 2.27-7.47 2.27s-5.25-.78-7.47-2.27c.28-5.41 3.56-9.73 7.47-9.73m0-1c-4.63 0-8.39 5.01-8.49 11.24 2.39 1.73 5.32 2.76 8.49 2.76s6.1-1.03 8.49-2.76c-.1-6.23-3.86-11.24-8.49-11.24z"/></g><path d="M430.613 25.961c-2.463-1.745-4.123-4.435-4.394-7.485-.135-5.777 4.463-10.452 10.167-10.397 5.703.054 10.293 4.838 10.142 10.722C446.225 24.723 441.172 29.5 435 29.5c-3.64 0-6.96-1.34-9.51-3.55" fill="none" stroke="#000000" stroke-miterlimit="10"/></g><g><path d="M465 12.45c-2.02 0-3.66-1.64-3.66-3.66 0-2.02 1.64-3.66 3.66-3.66 2.02 0 3.66 1.64 3.66 3.66 0 2.02-1.64 3.66-3.66 3.66z" fill="#000000"/><path d="M465 5.63c1.74 0 3.16 1.42 3.16 3.16 0 1.74-1.42 3.16-3.16 3.16-1.74 0-3.16-1.42-3.16-3.16 0-1.74 1.42-3.16 3.16-3.16m0-1c-2.3 0-4.16 1.86-4.16 4.16s1.86 4.16 4.16 4.16 4.16-1.86 4.16-4.16-1.86-4.16-4.16-4.16z" fill="#000000"/><g fill="#000000"><path d="M465 27c-2.87 0-5.62-.87-7.98-2.52.2-5.8 3.74-10.48 7.98-10.48s7.79 4.68 7.98 10.48C470.62 26.13 467.87 27 465 27z"/><path d="M465 14.5c3.91 0 7.19 4.32 7.47 9.73-2.23 1.49-4.8 2.27-7.47 2.27s-5.25-.78-7.47-2.27c.28-5.41 3.56-9.73 7.47-9.73m0-1c-4.63 0-8.39 5.01-8.49 11.24 2.39 1.73 5.32 2.76 8.49 2.76s6.1-1.03 8.49-2.76c-.1-6.23-3.86-11.24-8.49-11.24z"/></g><path d="M459.748 25.959c-2.564-1.899-4.27-4.797-4.494-8.07-.112-6.154 4.805-11.135 10.898-11.09 6.092.045 11.003 5.117 10.878 11.36-.252 6.275-5.548 11.341-12.03 11.341-3.64 0-6.96-1.34-9.51-3.55" fill="none" stroke="#000000" stroke-miterlimit="10"/></g><g><path d="M495 12.45c-2.02 0-3.66-1.64-3.66-3.66 0-2.02 1.64-3.66 3.66-3.66 2.02 0 3.66 1.64 3.66 3.66 0 2.02-1.64 3.66-3.66 3.66z" fill="#000000"/><path d="M495 5.63c1.74 0 3.16 1.42 3.16 3.16 0 1.74-1.42 3.16-3.16 3.16-1.74 0-3.16-1.42-3.16-3.16 0-1.74 1.42-3.16 3.16-3.16m0-1c-2.3 0-4.16 1.86-4.16 4.16s1.86 4.16 4.16 4.16 4.16-1.86 4.16-4.16-1.86-4.16-4.16-4.16z" fill="#000000"/><g fill="#000000"><path d="M495 27c-2.87 0-5.62-.87-7.98-2.52.2-5.8 3.74-10.48 7.98-10.48s7.79 4.68 7.98 10.48C500.62 26.13 497.87 27 495 27z"/><path d="M495 14.5c3.91 0 7.19 4.32 7.47 9.73-2.23 1.49-4.8 2.27-7.47 2.27s-5.25-.78-7.47-2.27c.28-5.41 3.56-9.73 7.47-9.73m0-1c-4.63 0-8.39 5.01-8.49 11.24 2.39 1.73 5.32 2.76 8.49 2.76s6.1-1.03 8.49-2.76c-.1-6.23-3.86-11.24-8.49-11.24z"/></g><path d="M489.01 25.957c-2.649-2.031-4.394-5.106-4.58-8.568-.092-6.475 5.097-11.718 11.522-11.681 6.425.038 11.609 5.355 11.505 11.904C507.25 24.187 501.747 29.5 495 29.5c-3.64 0-6.96-1.34-9.51-3.55" fill="none" stroke="#000000" stroke-miterlimit="10"/></g><g><path d="M525 12.45c-2.02 0-3.66-1.64-3.66-3.66 0-2.02 1.64-3.66 3.66-3.66 2.02 0 3.66 1.64 3.66 3.66 0 2.02-1.64 3.66-3.66 3.66z" fill="#000000"/><path d="M525 5.63c1.74 0 3.16 1.42 3.16 3.16 0 1.74-1.42 3.16-3.16 3.16-1.74 0-3.16-1.42-3.16-3.16 0-1.74 1.42-3.16 3.16-3.16m0-1c-2.3 0-4.16 1.86-4.16 4.16s1.86 4.16 4.16 4.16 4.16-1.86 4.16-4.16-1.86-4.16-4.16-4.16z" fill="#000000"/><g fill="#000000"><path d="M525 27c-2.87 0-5.62-.87-7.98-2.52.2-5.8 3.74-10.48 7.98-10.48s7.79 4.68 7.98 10.48C530.62 26.13 527.87 27 525 27z"/><path d="M525 14.5c3.91 0 7.19 4.32 7.47 9.73-2.23 1.49-4.8 2.27-7.47 2.27s-5.25-.78-7.47-2.27c.28-5.41 3.56-9.73 7.47-9.73m0-1c-4.63 0-8.39 5.01-8.49 11.24 2.39 1.73 5.32 2.76 8.49 2.76s6.1-1.03 8.49-2.76c-.1-6.23-3.86-11.24-8.49-11.24z"/></g><path d="M518.381 25.956c-2.723-2.143-4.501-5.369-4.653-8.994-.077-6.75 5.346-12.216 12.054-12.185 6.708.03 12.126 5.558 12.041 12.368-.171 6.832-5.85 12.355-12.823 12.355-3.64 0-6.96-1.34-9.51-3.55" fill="none" stroke="#000000" stroke-miterlimit="10"/></g><g><path d="M555 12.45c-2.02 0-3.66-1.64-3.66-3.66 0-2.02 1.64-3.66 3.66-3.66 2.02 0 3.66 1.64 3.66 3.66 0 2.02-1.64 3.66-3.66 3.66z" fill="#000000"/><path d="M555 5.63c1.74 0 3.16 1.42 3.16 3.16 0 1.74-1.42 3.16-3.16 3.16-1.74 0-3.16-1.42-3.16-3.16 0-1.74 1.42-3.16 3.16-3.16m0-1c-2.3 0-4.16 1.86-4.16 4.16s1.86 4.16 4.16 4.16 4.16-1.86 4.16-4.16-1.86-4.16-4.16-4.16z" fill="#000000"/><g fill="#000000"><path d="M555 27c-2.87 0-5.62-.87-7.98-2.52.2-5.8 3.74-10.48 7.98-10.48s7.79 4.68 7.98 10.48C560.62 26.13 557.87 27 555 27z"/><path d="M555 14.5c3.91 0 7.19 4.32 7.47 9.73-2.23 1.49-4.8 2.27-7.47 2.27s-5.25-.78-7.47-2.27c.28-5.41 3.56-9.73 7.47-9.73m0-1c-4.63 0-8.39 5.01-8.49 11.24 2.39 1.73 5.32 2.76 8.49 2.76s6.1-1.03 8.49-2.76c-.1-6.23-3.86-11.24-8.49-11.24z"/></g><path d="M547.843 25.955c-2.786-2.24-4.592-5.595-4.716-9.358-.062-6.985 5.559-12.641 12.509-12.616 6.951.025 12.568 5.731 12.499 12.765C567.996 23.797 562.166 29.5 555 29.5c-3.64 0-6.96-1.34-9.51-3.55" fill="none" stroke="#000000" stroke-miterlimit="10"/></g><g><path d="M585 12.45c-2.02 0-3.66-1.64-3.66-3.66 0-2.02 1.64-3.66 3.66-3.66 2.02 0 3.66 1.64 3.66 3.66 0 2.02-1.64 3.66-3.66 3.66z" fill="#000000"/><path d="M585 5.63c1.74 0 3.16 1.42 3.16 3.16 0 1.74-1.42 3.16-3.16 3.16-1.74 0-3.16-1.42-3.16-3.16 0-1.74 1.42-3.16 3.16-3.16m0-1c-2.3 0-4.16 1.86-4.16 4.16s1.86 4.16 4.16 4.16 4.16-1.86 4.16-4.16-1.86-4.16-4.16-4.16z" fill="#000000"/><g fill="#000000"><path d="M585 27c-2.87 0-5.62-.87-7.98-2.52.2-5.8 3.74-10.48 7.98-10.48s7.79 4.68 7.98 10.48C590.62 26.13 587.87 27 585 27z"/><path d="M585 14.5c3.91 0 7.19 4.32 7.47 9.73-2.23 1.49-4.8 2.27-7.47 2.27s-5.25-.78-7.47-2.27c.28-5.41 3.56-9.73 7.47-9.73m0-1c-4.63 0-8.39 5.01-8.49 11.24 2.39 1.73 5.32 2.76 8.49 2.76s6.1-1.03 8.49-2.76c-.1-6.23-3.86-11.24-8.49-11.24z"/></g><path d="M577.384 25.954c-2.839-2.322-4.67-5.787-4.769-9.669-.05-7.184 5.74-13.003 12.897-12.983 7.157.02 12.945 5.879 12.889 13.103C598.289 23.643 592.33 29.5 585 29.5c-3.64 0-6.96-1.34-9.51-3.55" fill="none" stroke="#000000" stroke-miterlimit="10"/></g><g><path d="M615 12.45c-2.02 0-3.66-1.64-3.66-3.66 0-2.02 1.64-3.66 3.66-3.66 2.02 0 3.66 1.64 3.66 3.66 0 2.02-1.64 3.66-3.66 3.66z" fill="#000000"/><path d="M615 5.63c1.74 0 3.16 1.42 3.16 3.16 0 1.74-1.42 3.16-3.16 3.16-1.74 0-3.16-1.42-3.16-3.16 0-1.74 1.42-3.16 3.16-3.16m0-1c-2.3 0-4.16 1.86-4.16 4.16s1.86 4.16 4.16 4.16 4.16-1.86 4.16-4.16-1.86-4.16-4.16-4.16z" fill="#000000"/><g fill="#000000"><path d="M615 27c-2.87 0-5.62-.87-7.98-2.52.2-5.8 3.74-10.48 7.98-10.48s7.79 4.68 7.98 10.48C620.62 26.13 617.87 27 615 27z"/><path d="M615 14.5c3.91 0 7.19 4.32 7.47 9.73-2.23 1.49-4.8 2.27-7.47 2.27s-5.25-.78-7.47-2.27c.28-5.41 3.56-9.73 7.47-9.73m0-1c-4.63 0-8.39 5.01-8.49 11.24 2.39 1.73 5.32 2.76 8.49 2.76s6.1-1.03 8.49-2.76c-.1-6.23-3.86-11.24-8.49-11.24z"/></g><path d="M606.993 25.953c-2.885-2.391-4.736-5.951-4.815-9.933-.04-7.355 5.895-13.312 13.229-13.296 7.333.015 13.265 6.005 13.221 13.391C628.539 23.513 622.471 29.5 615 29.5c-3.64 0-6.96-1.34-9.51-3.55" fill="none" stroke="#000000" stroke-miterlimit="10"/></g><g><path d="M645 12.45c-2.02 0-3.66-1.64-3.66-3.66 0-2.02 1.64-3.66 3.66-3.66 2.02 0 3.66 1.64 3.66 3.66 0 2.02-1.64 3.66-3.66 3.66z" fill="#000000"/><path d="M645 5.63c1.74 0 3.16 1.42 3.16 3.16 0 1.74-1.42 3.16-3.16 3.16-1.74 0-3.16-1.42-3.16-3.16 0-1.74 1.42-3.16 3.16-3.16m0-1c-2.3 0-4.16 1.86-4.16 4.16s1.86 4.16 4.16 4.16 4.16-1.86 4.16-4.16-1.86-4.16-4.16-4.16z" fill="#000000"/><g fill="#000000"><path d="M645 27c-2.87 0-5.62-.87-7.98-2.52.2-5.8 3.74-10.48 7.98-10.48s7.79 4.68 7.98 10.48C650.62 26.13 647.87 27 645 27z"/><path d="M645 14.5c3.91 0 7.19 4.32 7.47 9.73-2.23 1.49-4.8 2.27-7.47 2.27s-5.25-.78-7.47-2.27c.28-5.41 3.56-9.73 7.47-9.73m0-1c-4.63 0-8.39 5.01-8.49 11.24 2.39 1.73 5.32 2.76 8.49 2.76s6.1-1.03 8.49-2.76c-.1-6.23-3.86-11.24-8.49-11.24z"/></g><path d="M636.661 25.952c-2.923-2.45-4.791-6.089-4.853-10.157-.031-7.499 6.026-13.574 13.509-13.562 7.482.013 13.538 6.112 13.503 13.636-.069 7.533-6.23 13.631-13.82 13.631-3.64 0-6.96-1.34-9.51-3.55" fill="none" stroke="#000000" stroke-miterlimit="10"/></g><g><path d="M675 12.45c-2.02 0-3.66-1.64-3.66-3.66 0-2.02 1.64-3.66 3.66-3.66 2.02 0 3.66 1.64 3.66 3.66 0 2.02-1.64 3.66-3.66 3.66z" fill="#000000"/><path d="M675 5.63c1.74 0 3.16 1.42 3.16 3.16 0 1.74-1.42 3.16-3.16 3.16-1.74 0-3.16-1.42-3.16-3.16 0-1.74 1.42-3.16 3.16-3.16m0-1c-2.3 0-4.16 1.86-4.16 4.16s1.86 4.16 4.16 4.16 4.16-1.86 4.16-4.16-1.86-4.16-4.16-4.16z" fill="#000000"/><g fill="#000000"><path d="M675 27c-2.87 0-5.62-.87-7.98-2.52.2-5.8 3.74-10.48 7.98-10.48s7.79 4.68 7.98 10.48C680.62 26.13 677.87 27 675 27z"/><path d="M675 14.5c3.91 0 7.19 4.32 7.47 9.73-2.23 1.49-4.8 2.27-7.47 2.27s-5.25-.78-7.47-2.27c.28-5.41 3.56-9.73 7.47-9.73m0-1c-4.63 0-8.39 5.01-8.49 11.24 2.39 1.73 5.32 2.76 8.49 2.76s6.1-1.03 8.49-2.76c-.1-6.23-3.86-11.24-8.49-11.24z"/></g><path d="M666.383 25.952c-2.956-2.501-4.839-6.206-4.886-10.346-.024-7.621 6.136-13.795 13.744-13.786 7.609.01 13.767 6.203 13.741 13.842C688.929 23.308 682.69 29.5 675 29.5c-3.64 0-6.96-1.34-9.51-3.55" fill="none" stroke="#000000" stroke-miterlimit="10"/></g><g><path d="M705 12.45c-2.02 0-3.66-1.64-3.66-3.66 0-2.02 1.64-3.66 3.66-3.66 2.02 0 3.66 1.64 3.66 3.66 0 2.02-1.64 3.66-3.66 3.66z" fill="#000000"/><path d="M705 5.63c1.74 0 3.16 1.42 3.16 3.16 0 1.74-1.42 3.16-3.16 3.16-1.74 0-3.16-1.42-3.16-3.16 0-1.74 1.42-3.16 3.16-3.16m0-1c-2.3 0-4.16 1.86-4.16 4.16s1.86 4.16 4.16 4.16 4.16-1.86 4.16-4.16-1.86-4.16-4.16-4.16z" fill="#000000"/><g fill="#000000"><path d="M705 27c-2.87 0-5.62-.87-7.98-2.52.2-5.8 3.74-10.48 7.98-10.48s7.79 4.68 7.98 10.48C710.62 26.13 707.87 27 705 27z"/><path d="M705 14.5c3.91 0 7.19 4.32 7.47 9.73-2.23 1.49-4.8 2.27-7.47 2.27s-5.25-.78-7.47-2.27c.28-5.41 3.56-9.73 7.47-9.73m0-1c-4.63 0-8.39 5.01-8.49 11.24 2.39 1.73 5.32 2.76 8.49 2.76s6.1-1.03 8.49-2.76c-.1-6.23-3.86-11.24-8.49-11.24z"/></g><path d="M696.15 25.951c-2.983-2.542-4.878-6.303-4.913-10.503-.017-7.722 6.229-13.978 13.942-13.971 7.712.007 13.957 6.277 13.938 14.013-.039 7.741-6.344 14.01-14.117 14.01-3.64 0-6.96-1.34-9.51-3.55" fill="none" stroke="#000000" stroke-miterlimit="10"/></g><g><path d="M735 12.45c-2.02 0-3.66-1.64-3.66-3.66 0-2.02 1.64-3.66 3.66-3.66 2.02 0 3.66 1.64 3.66 3.66 0 2.02-1.64 3.66-3.66 3.66z" fill="#000000"/><path d="M735 5.63c1.74 0 3.16 1.42 3.16 3.16 0 1.74-1.42 3.16-3.16 3.16-1.74 0-3.16-1.42-3.16-3.16 0-1.74 1.42-3.16 3.16-3.16m0-1c-2.3 0-4.16 1.86-4.16 4.16s1.86 4.16 4.16 4.16 4.16-1.86 4.16-4.16-1.86-4.16-4.16-4.16z" fill="#000000"/><g fill="#000000"><path d="M735 27c-2.87 0-5.62-.87-7.98-2.52.2-5.8 3.74-10.48 7.98-10.48s7.79 4.68 7.98 10.48C740.62 26.13 737.87 27 735 27z"/><path d="M735 14.5c3.91 0 7.19 4.32 7.47 9.73-2.23 1.49-4.8 2.27-7.47 2.27s-5.25-.78-7.47-2.27c.28-5.41 3.56-9.73 7.47-9.73m0-1c-4.63 0-8.39 5.01-8.49 11.24 2.39 1.73 5.32 2.76 8.49 2.76s6.1-1.03 8.49-2.76c-.1-6.23-3.86-11.24-8.49-11.24z"/></g><path d="M725.959 25.951c-3.005-2.576-4.91-6.384-4.935-10.633-.013-7.805 6.304-14.129 14.103-14.124 7.799.005 14.115 6.339 14.101 14.154C749.2 23.167 742.842 29.5 735 29.5c-3.64 0-6.96-1.34-9.51-3.55" fill="none" stroke="#000000" stroke-miterlimit="10"/></g><g><path d="M765 12.45c-2.02 0-3.66-1.64-3.66-3.66 0-2.02 1.64-3.66 3.66-3.66 2.02 0 3.66 1.64 3.66 3.66 0 2.02-1.64 3.66-3.66 3.66z" fill="#000000"/><path d="M765 5.63c1.74 0 3.16 1.42 3.16 3.16 0 1.74-1.42 3.16-3.16 3.16-1.74 0-3.16-1.42-3.16-3.16 0-1.74 1.42-3.16 3.16-3.16m0-1c-2.3 0-4.16 1.86-4.16 4.16s1.86 4.16 4.16 4.16 4.16-1.86 4.16-4.16-1.86-4.16-4.16-4.16z" fill="#000000"/><g fill="#000000"><path d="M765 27c-2.87 0-5.62-.87-7.98-2.52.2-5.8 3.74-10.48 7.98-10.48s7.79 4.68 7.98 10.48C770.62 26.13 767.87 27 765 27z"/><path d="M765 14.5c3.91 0 7.19 4.32 7.47 9.73-2.23 1.49-4.8 2.27-7.47 2.27s-5.25-.78-7.47-2.27c.28-5.41 3.56-9.73 7.47-9.73m0-1c-4.63 0-8.39 5.01-8.49 11.24 2.39 1.73 5.32 2.76 8.49 2.76s6.1-1.03 8.49-2.76c-.1-6.23-3.86-11.24-8.49-11.24z"/></g><path d="M755.806 25.951c-3.023-2.604-4.937-6.448-4.954-10.737-.008-7.872 6.366-14.25 14.233-14.247 7.868.003 14.241 6.388 14.232 14.267-.019 7.882-6.42 14.266-14.317 14.266-3.64 0-6.96-1.34-9.51-3.55" fill="none" stroke="#000000" stroke-miterlimit="10"/></g><g><path d="M795 12.45c-2.02 0-3.66-1.64-3.66-3.66 0-2.02 1.64-3.66 3.66-3.66 2.02 0 3.66 1.64 3.66 3.66 0 2.02-1.64 3.66-3.66 3.66z" fill="#000000"/><path d="M795 5.63c1.74 0 3.16 1.42 3.16 3.16 0 1.74-1.42 3.16-3.16 3.16-1.74 0-3.16-1.42-3.16-3.16 0-1.74 1.42-3.16 3.16-3.16m0-1c-2.3 0-4.16 1.86-4.16 4.16s1.86 4.16 4.16 4.16 4.16-1.86 4.16-4.16-1.86-4.16-4.16-4.16z" fill="#000000"/><g fill="#000000"><path d="M795 27c-2.87 0-5.62-.87-7.98-2.52.2-5.8 3.74-10.48 7.98-10.48s7.79 4.68 7.98 10.48C800.62 26.13 797.87 27 795 27z"/><path d="M795 14.5c3.91 0 7.19 4.32 7.47 9.73-2.23 1.49-4.8 2.27-7.47 2.27s-5.25-.78-7.47-2.27c.28-5.41 3.56-9.73 7.47-9.73m0-1c-4.63 0-8.39 5.01-8.49 11.24 2.39 1.73 5.32 2.76 8.49 2.76s6.1-1.03 8.49-2.76c-.1-6.23-3.86-11.24-8.49-11.24z"/></g><path d="M785.686 25.95c-3.037-2.625-4.957-6.498-4.967-10.817C780.714 7.208 787.131.788 795.053.79c7.922.002 14.339 6.427 14.333 14.355C809.375 23.076 802.94 29.5 795 29.5c-3.64 0-6.96-1.34-9.51-3.55" fill="none" stroke="#000000" stroke-miterlimit="10"/></g><g><path d="M825 12.45c-2.02 0-3.66-1.64-3.66-3.66 0-2.02 1.64-3.66 3.66-3.66 2.02 0 3.66 1.64 3.66 3.66 0 2.02-1.64 3.66-3.66 3.66z" fill="#000000"/><path d="M825 5.63c1.74 0 3.16 1.42 3.16 3.16 0 1.74-1.42 3.16-3.16 3.16-1.74 0-3.16-1.42-3.16-3.16 0-1.74 1.42-3.16 3.16-3.16m0-1c-2.3 0-4.16 1.86-4.16 4.16s1.86 4.16 4.16 4.16 4.16-1.86 4.16-4.16-1.86-4.16-4.16-4.16z" fill="#000000"/><g fill="#000000"><path d="M825 27c-2.87 0-5.62-.87-7.98-2.52.2-5.8 3.74-10.48 7.98-10.48s7.79 4.68 7.98 10.48C830.62 26.13 827.87 27 825 27z"/><path d="M825 14.5c3.91 0 7.19 4.32 7.47 9.73-2.23 1.49-4.8 2.27-7.47 2.27s-5.25-.78-7.47-2.27c.28-5.41 3.56-9.73 7.47-9.73m0-1c-4.63 0-8.39 5.01-8.49 11.24 2.39 1.73 5.32 2.76 8.49 2.76s6.1-1.03 8.49-2.76c-.1-6.23-3.86-11.24-8.49-11.24z"/></g><path d="M815.597 25.95c-3.047-2.641-4.972-6.535-4.977-10.877-.003-7.964 6.447-14.416 14.409-14.415 7.962.002 14.412 6.456 14.409 14.421C839.432 23.046 832.972 29.5 825 29.5c-3.64 0-6.96-1.34-9.51-3.55" fill="none" stroke="#000000" stroke-miterlimit="10"/></g><g><path d="M855 12.45c-2.02 0-3.66-1.64-3.66-3.66 0-2.02 1.64-3.66 3.66-3.66 2.02 0 3.66 1.64 3.66 3.66 0 2.02-1.64 3.66-3.66 3.66z" fill="#000000"/><path d="M855 5.63c1.74 0 3.16 1.42 3.16 3.16 0 1.74-1.42 3.16-3.16 3.16-1.74 0-3.16-1.42-3.16-3.16 0-1.74 1.42-3.16 3.16-3.16m0-1c-2.3 0-4.16 1.86-4.16 4.16s1.86 4.16 4.16 4.16 4.16-1.86 4.16-4.16-1.86-4.16-4.16-4.16z" fill="#000000"/><g fill="#000000"><path d="M855 27c-2.87 0-5.62-.87-7.98-2.52.2-5.8 3.74-10.48 7.98-10.48s7.79 4.68 7.98 10.48C860.62 26.13 857.87 27 855 27z"/><path d="M855 14.5c3.91 0 7.19 4.32 7.47 9.73-2.23 1.49-4.8 2.27-7.47 2.27s-5.25-.78-7.47-2.27c.28-5.41 3.56-9.73 7.47-9.73m0-1c-4.63 0-8.39 5.01-8.49 11.24 2.39 1.73 5.32 2.76 8.49 2.76s6.1-1.03 8.49-2.76c-.1-6.23-3.86-11.24-8.49-11.24z"/></g><path d="M845.536 25.95c-3.054-2.652-4.982-6.561-4.984-10.919C840.55 7.042 847.023.568 855.013.568c7.989.001 14.462 6.476 14.46 14.466C869.47 23.025 862.993 29.5 855 29.5c-3.64 0-6.96-1.34-9.51-3.55" fill="none" stroke="#000000" stroke-miterlimit="10"/></g><g><path d="M885 12.45c-2.02 0-3.66-1.64-3.66-3.66 0-2.02 1.64-3.66 3.66-3.66 2.02 0 3.66 1.64 3.66 3.66 0 2.02-1.64 3.66-3.66 3.66z" fill="#000000"/><path d="M885 5.63c1.74 0 3.16 1.42 3.16 3.16 0 1.74-1.42 3.16-3.16 3.16-1.74 0-3.16-1.42-3.16-3.16 0-1.74 1.42-3.16 3.16-3.16m0-1c-2.3 0-4.16 1.86-4.16 4.16s1.86 4.16 4.16 4.16 4.16-1.86 4.16-4.16-1.86-4.16-4.16-4.16z" fill="#000000"/><g fill="#000000"><path d="M885 27c-2.87 0-5.62-.87-7.98-2.52.2-5.8 3.74-10.48 7.98-10.48s7.79 4.68 7.98 10.48C890.62 26.13 887.87 27 885 27z"/><path d="M885 14.5c3.91 0 7.19 4.32 7.47 9.73-2.23 1.49-4.8 2.27-7.47 2.27s-5.25-.78-7.47-2.27c.28-5.41 3.56-9.73 7.47-9.73m0-1c-4.63 0-8.39 5.01-8.49 11.24 2.39 1.73 5.32 2.76 8.49 2.76s6.1-1.03 8.49-2.76c-.1-6.23-3.86-11.24-8.49-11.24z"/></g><path d="M875.501 25.95c-3.058-2.658-4.988-6.575-4.988-10.942-.001-8.005 6.485-14.491 14.49-14.491 8.005 0 14.491 6.486 14.49 14.491 0 8.006-6.487 14.492-14.493 14.492-3.64 0-6.96-1.34-9.51-3.55" fill="none" stroke="#000000" stroke-miterlimit="10"/></g><g><path d="M915 12.45c-2.02 0-3.66-1.64-3.66-3.66 0-2.02 1.64-3.66 3.66-3.66 2.02 0 3.66 1.64 3.66 3.66 0 2.02-1.64 3.66-3.66 3.66z" fill="#000000"/><path d="M915 5.63c1.74 0 3.16 1.42 3.16 3.16 0 1.74-1.42 3.16-3.16 3.16-1.74 0-3.16-1.42-3.16-3.16 0-1.74 1.42-3.16 3.16-3.16m0-1c-2.3 0-4.16 1.86-4.16 4.16s1.86 4.16 4.16 4.16 4.16-1.86 4.16-4.16-1.86-4.16-4.16-4.16z" fill="#000000"/><g fill="#000000"><path d="M915 27c-2.87 0-5.62-.87-7.98-2.52.2-5.8 3.74-10.48 7.98-10.48s7.79 4.68 7.98 10.48C920.62 26.13 917.87 27 915 27z"/><path d="M915 14.5c3.91 0 7.19 4.32 7.47 9.73-2.23 1.49-4.8 2.27-7.47 2.27s-5.25-.78-7.47-2.27c.28-5.41 3.56-9.73 7.47-9.73m0-1c-4.63 0-8.39 5.01-8.49 11.24 2.39 1.73 5.32 2.76 8.49 2.76s6.1-1.03 8.49-2.76c-.1-6.23-3.86-11.24-8.49-11.24z"/></g><path d="M905.49 25.95c-3.06-2.66-4.99-6.58-4.99-10.95 0-8.01 6.49-14.5 14.5-14.5s14.5 6.49 14.5 14.5-6.49 14.5-14.5 14.5c-3.64 0-6.96-1.34-9.51-3.55" fill="none" stroke="#000000" stroke-miterlimit="10"/></g></svg>
